<?xml version="1.0" encoding="utf-8"?>
<!-- Generator: Adobe Illustrator 27.5.0, SVG Export Plug-In . SVG Version: 6.00 Build 0)  -->
<svg version="1.1" id="Layer_1" xmlns="http://www.w3.org/2000/svg" xmlns:xlink="http://www.w3.org/1999/xlink" x="0px" y="0px"
	 viewBox="0 0 2700 2000" style="enable-background:new 0 0 2700 2000;" xml:space="preserve">
<rect style="fill:#FFFFFF;" width="2700" height="2000"/>
<g>
	<g>
		<g>
			<g>
				<g>
					<g>
						<g>
							<g>
								<g>
									<path style="fill:#3F9896;" d="M1519.808,499.561c0,0,23.518-95.524,146.62-111.083
										C1666.428,388.478,1624.271,529.388,1519.808,499.561z"/>
								</g>
							</g>
						</g>
					</g>
				</g>
			</g>
		</g>
		<g>
			<g>
				<g>
					<g>
						<g>
							<g>
								<g>
									<path style="fill:#7FC6A6;" d="M1495.31,538.82c0,0-101.413-135.707,12.434-316.532
										C1507.744,222.288,1649.182,432.405,1495.31,538.82z"/>
								</g>
							</g>
						</g>
					</g>
				</g>
			</g>
		</g>
	</g>
	<g>
		<g>
			<g>
				<g>
					<path style="fill:#FEEFDC;" d="M711.199,1871.868L711.199,1871.868c-157.728-3.859-302.563-84.186-381.951-213.016
						c-63.537-103.107-113.056-251.684-103.213-461.172c24.93-530.546,507.808-895.986,809.58-913.52
						c368.136-21.39,284.754,192.992,689.426,228.141c189.184,16.432,428.622,103.982,580.197,375.644
						c93.099,166.857,167.955,389.998-13.028,741.602c-76.342,148.313-235.746,242.32-410.301,242.32H711.199z"/>
				</g>
			</g>
		</g>
	</g>
	<g>
		<path style="fill:#FECC86;" d="M760.487,1329.272c-7.57-4.672-15.734-7.99-24.155-9.937l-3.932-21.045l-14.639,0.037
			l-14.639,0.037l-3.825,21.064c-8.412,1.99-16.559,5.348-24.105,10.059l-17.663-12.103l-10.325,10.377l-10.325,10.377
			l12.191,17.602c-4.672,7.57-7.989,15.734-9.937,24.155l-21.045,3.932l0.037,14.639l0.037,14.639l21.065,3.825
			c1.99,8.412,5.348,16.558,10.058,24.105l-12.103,17.664l10.377,10.325l10.377,10.325l17.602-12.192
			c7.57,4.672,15.734,7.989,24.155,9.937l3.932,21.045l14.639-0.037l14.639-0.037l3.825-21.065
			c8.412-1.99,16.559-5.348,24.105-10.058l17.664,12.103l10.325-10.377l10.325-10.377l-12.192-17.602
			c4.672-7.57,7.99-15.734,9.937-24.155l21.045-3.932l-0.037-14.639l-0.037-14.639l-21.064-3.825
			c-1.99-8.412-5.348-16.559-10.059-24.105l12.103-17.663l-10.377-10.325l-10.377-10.325L760.487,1329.272z M756.945,1436.95
			c-21.393,21.501-56.166,21.589-77.667,0.196c-21.501-21.393-21.589-56.166-0.196-77.667c21.393-21.501,56.166-21.589,77.667-0.196
			C778.25,1380.676,778.338,1415.449,756.945,1436.95z"/>
	</g>
	<g>
		<g>
			<g>
				<path style="fill:#FFFFFF;" d="M336.415,993.269h317.73c10.149,0,18.376,8.228,18.376,18.377v153.896
					c0,10.149-8.227,18.377-18.376,18.377h-27.061l12.33,33.668l-48.697-33.668H336.415c-10.149,0-18.376-8.228-18.376-18.377
					v-153.896C318.039,1001.497,326.266,993.269,336.415,993.269z"/>
			</g>
		</g>
		<g>
			<g>
				<g>
					<g>
						<path style="fill:#B1E8FC;" d="M351.328,1113.333h295.583c2.046,0,3.704-1.658,3.704-3.704c0-2.046-1.658-3.704-3.704-3.704
							H351.328c-2.046,0-3.704,1.658-3.704,3.704C347.624,1111.675,349.282,1113.333,351.328,1113.333z"/>
					</g>
				</g>
			</g>
			<g>
				<g>
					<g>
						<path style="fill:#B1E8FC;" d="M454.856,1029.194h192.055c2.046,0,3.704-1.658,3.704-3.704c0-2.046-1.658-3.704-3.704-3.704
							H454.856c-2.046,0-3.704,1.658-3.704,3.704C451.152,1027.536,452.81,1029.194,454.856,1029.194z"/>
					</g>
				</g>
			</g>
			<g>
				<g>
					<g>
						<path style="fill:#B1E8FC;" d="M563.87,1155.402h83.041c2.046,0,3.704-1.658,3.704-3.704c0-2.046-1.658-3.704-3.704-3.704
							H563.87c-2.046,0-3.704,1.658-3.704,3.704C560.167,1153.745,561.824,1155.402,563.87,1155.402z"/>
					</g>
				</g>
			</g>
			<g>
				<g>
					<g>
						<path style="fill:#B1E8FC;" d="M351.328,1155.402h186.569c2.046,0,3.704-1.658,3.704-3.704c0-2.046-1.658-3.704-3.704-3.704
							H351.328c-2.046,0-3.704,1.658-3.704,3.704C347.624,1153.745,349.282,1155.402,351.328,1155.402z"/>
					</g>
				</g>
			</g>
			<g>
				<g>
					<g>
						<path style="fill:#B1E8FC;" d="M349.134,1029.194h76.64c2.046,0,3.704-1.658,3.704-3.704c0-2.046-1.658-3.704-3.704-3.704
							h-76.64c-2.046,0-3.704,1.658-3.704,3.704C345.43,1027.536,347.087,1029.194,349.134,1029.194z"/>
					</g>
				</g>
			</g>
			<g>
				<g>
					<g>
						<path style="fill:#B1E8FC;" d="M526.191,1071.263h120.72c2.046,0,3.704-1.658,3.704-3.704c0-2.046-1.658-3.704-3.704-3.704
							h-120.72c-2.046,0-3.704,1.658-3.704,3.704C522.487,1069.605,524.145,1071.263,526.191,1071.263z"/>
					</g>
				</g>
			</g>
			<g>
				<g>
					<g>
						<path style="fill:#B1E8FC;" d="M349.134,1071.263H499.12c2.046,0,3.704-1.658,3.704-3.704c0-2.046-1.658-3.704-3.704-3.704
							H349.134c-2.046,0-3.704,1.658-3.704,3.704C345.43,1069.605,347.087,1071.263,349.134,1071.263z"/>
					</g>
				</g>
			</g>
		</g>
	</g>
	<g>
		<g>
			<g>
				<path style="fill:#AAC9F8;" d="M378.048,526.896h269.725c8.616,0,15.6,6.985,15.6,15.6V673.14c0,8.616-6.984,15.6-15.6,15.6
					h-22.972l10.467,28.581l-41.34-28.581h-215.88c-8.616,0-15.6-6.984-15.6-15.6V542.496
					C362.448,533.881,369.433,526.896,378.048,526.896z"/>
			</g>
		</g>
		<g>
			<g>
				<g>
					<g>
						<path style="fill:#FFFFFF;" d="M390.708,628.819h250.924c1.737,0,3.144-1.407,3.144-3.144s-1.407-3.144-3.144-3.144H390.708
							c-1.737,0-3.144,1.407-3.144,3.144S388.971,628.819,390.708,628.819z"/>
					</g>
				</g>
			</g>
			<g>
				<g>
					<g>
						<path style="fill:#FFFFFF;" d="M478.594,557.392h163.037c1.737,0,3.144-1.407,3.144-3.144c0-1.737-1.407-3.144-3.144-3.144
							H478.594c-1.737,0-3.144,1.408-3.144,3.144C475.45,555.985,476.857,557.392,478.594,557.392z"/>
					</g>
				</g>
			</g>
			<g>
				<g>
					<g>
						<path style="fill:#FFFFFF;" d="M571.137,664.532h70.494c1.737,0,3.144-1.407,3.144-3.144s-1.407-3.144-3.144-3.144h-70.494
							c-1.737,0-3.144,1.407-3.144,3.144S569.4,664.532,571.137,664.532z"/>
					</g>
				</g>
			</g>
			<g>
				<g>
					<g>
						<path style="fill:#FFFFFF;" d="M390.708,664.532h158.381c1.737,0,3.144-1.407,3.144-3.144s-1.407-3.144-3.144-3.144H390.708
							c-1.737,0-3.144,1.407-3.144,3.144S388.971,664.532,390.708,664.532z"/>
					</g>
				</g>
			</g>
			<g>
				<g>
					<g>
						<path style="fill:#FFFFFF;" d="M388.845,557.392h65.06c1.737,0,3.144-1.407,3.144-3.144c0-1.737-1.407-3.144-3.144-3.144
							h-65.06c-1.737,0-3.144,1.408-3.144,3.144C385.701,555.985,387.108,557.392,388.845,557.392z"/>
					</g>
				</g>
			</g>
			<g>
				<g>
					<g>
						<path style="fill:#FFFFFF;" d="M539.151,593.106h102.481c1.737,0,3.144-1.407,3.144-3.144c0-1.737-1.407-3.144-3.144-3.144
							H539.151c-1.737,0-3.144,1.407-3.144,3.144C536.006,591.698,537.414,593.106,539.151,593.106z"/>
					</g>
				</g>
			</g>
			<g>
				<g>
					<g>
						<path style="fill:#FFFFFF;" d="M388.845,593.106H516.17c1.737,0,3.144-1.407,3.144-3.144c0-1.737-1.408-3.144-3.144-3.144
							H388.845c-1.737,0-3.144,1.407-3.144,3.144C385.701,591.698,387.108,593.106,388.845,593.106z"/>
					</g>
				</g>
			</g>
		</g>
	</g>
	<g>
		<g>
			<g>
				<path style="fill:#AAC9F8;" d="M1896.239,451.509h-238.696c-7.625,0-13.805,6.181-13.805,13.805v115.615
					c0,7.625,6.181,13.806,13.805,13.806h20.329l-9.263,25.293l36.584-25.293h191.046c7.625,0,13.806-6.181,13.806-13.806V465.314
					C1910.045,457.69,1903.864,451.509,1896.239,451.509z"/>
			</g>
		</g>
		<g>
			<g>
				<g>
					<g>
						<path style="fill:#FFFFFF;" d="M1885.036,541.707h-222.058c-1.537,0-2.783-1.246-2.783-2.783c0-1.537,1.245-2.782,2.783-2.782
							h222.058c1.537,0,2.783,1.245,2.783,2.782C1887.818,540.461,1886.573,541.707,1885.036,541.707z"/>
					</g>
				</g>
			</g>
			<g>
				<g>
					<g>
						<path style="fill:#FFFFFF;" d="M1807.26,478.497h-144.282c-1.537,0-2.783-1.246-2.783-2.783c0-1.537,1.245-2.783,2.783-2.783
							h144.282c1.537,0,2.783,1.246,2.783,2.783C1810.042,477.252,1808.797,478.497,1807.26,478.497z"/>
					</g>
				</g>
			</g>
			<g>
				<g>
					<g>
						<path style="fill:#FFFFFF;" d="M1725.362,573.312h-62.385c-1.537,0-2.783-1.245-2.783-2.783s1.245-2.783,2.783-2.783h62.385
							c1.537,0,2.783,1.245,2.783,2.783S1726.899,573.312,1725.362,573.312z"/>
					</g>
				</g>
			</g>
			<g>
				<g>
					<g>
						<path style="fill:#FFFFFF;" d="M1885.036,573.312h-140.161c-1.537,0-2.783-1.245-2.783-2.783s1.245-2.783,2.783-2.783h140.161
							c1.537,0,2.783,1.245,2.783,2.783S1886.573,573.312,1885.036,573.312z"/>
					</g>
				</g>
			</g>
			<g>
				<g>
					<g>
						<path style="fill:#FFFFFF;" d="M1886.684,478.497h-57.576c-1.537,0-2.783-1.246-2.783-2.783c0-1.537,1.245-2.783,2.783-2.783
							h57.576c1.537,0,2.783,1.246,2.783,2.783C1889.467,477.252,1888.221,478.497,1886.684,478.497z"/>
					</g>
				</g>
			</g>
			<g>
				<g>
					<g>
						<path style="fill:#FFFFFF;" d="M1753.669,510.102h-90.692c-1.537,0-2.783-1.245-2.783-2.782c0-1.537,1.245-2.783,2.783-2.783
							h90.692c1.537,0,2.783,1.245,2.783,2.783C1756.452,508.857,1755.206,510.102,1753.669,510.102z"/>
					</g>
				</g>
			</g>
			<g>
				<g>
					<g>
						<path style="fill:#FFFFFF;" d="M1886.684,510.102h-112.678c-1.537,0-2.783-1.245-2.783-2.782c0-1.537,1.245-2.783,2.783-2.783
							h112.678c1.537,0,2.783,1.245,2.783,2.783C1889.467,508.857,1888.221,510.102,1886.684,510.102z"/>
					</g>
				</g>
			</g>
		</g>
	</g>
	<ellipse style="opacity:0.5;fill:#FECC86;" cx="946.92" cy="1691.889" rx="246.842" ry="16.931"/>
	<ellipse style="opacity:0.5;fill:#FECC86;" cx="1725.049" cy="1691.889" rx="246.842" ry="16.931"/>
	<g>
		<g>
			<g>
				<g>
					<path style="fill:#5780BC;" d="M1119.693,743.766l-352.774-38.78c-24.855-2.56-45.222,17.539-45.222,41.916v812.427
						c0,24.377,20.368,44.279,45.222,41.719l352.774-38.584c20.745-2.137,37.399-21.64,37.399-43.589V787.355
						C1157.091,765.405,1140.438,745.903,1119.693,743.766z M1141.779,1513.225c0,11.971-9.107,22.551-20.387,23.641
						l-356.481,34.438c-13.485,1.303-14.36-8.32-14.36-21.507V749.091c0-14.716,2.141-25.422,17.167-23.935l351.301,34.753
						c12.6,1.247,22.761,13.072,22.761,26.431V1513.225z"/>
				</g>
			</g>
			<g>
				<g>
					<path style="fill:#D8ECFE;" d="M1161.601,777.95c-0.008-0.241-0.017-0.482-0.033-0.722c-0.448-8.126-6.516-15.19-14.119-16.419
						c-0.224-0.042-0.457-0.075-0.681-0.108c-0.075-0.008-0.149-0.025-0.224-0.033l-368.148-36.415
						c-0.091-0.008-0.174-0.008-0.266-0.017c-0.274-0.016-0.539-0.033-0.813-0.042c-9.131-0.373-16.46,6.018-17,14.867
						c-0.025,0.266-0.033,0.523-0.042,0.789c-0.008,0.091-0.017,0.174-0.017,0.266v818.147c0,8.516,7.105,14.717,15.821,13.878
						l117.354-11.339l1.195-0.116l0.291-0.025l87.065-8.409l0.515-0.05l0.772-0.075l0.747-0.075l84.998-8.209l0.481-0.05
						l1.004-0.091l77.976-7.537c7.263-0.706,13.132-7.529,13.132-15.257v-742.72C1161.609,778.108,1161.601,778.033,1161.601,777.95
						z M760.55,783.362v-24.711l26.338,2.382c0.764,0.407,1.594,0.664,2.465,0.747c0.88,0.083,1.718-0.033,2.465-0.299l13.638,1.237
						c0.739,0.398,1.569,0.664,2.449,0.739c0.872,0.083,1.702-0.033,2.449-0.291l13.513,1.22c0.73,0.398,1.56,0.656,2.424,0.739
						c0.872,0.075,1.693-0.033,2.432-0.299l265.81,24.088v0.481l40.465,3.661v-0.473l26.479,2.399v22.436L760.55,783.362z"/>
				</g>
			</g>
			<g>
				<g>
					<path style="fill:#49263E;" d="M1124.838,1538.445l-0.756,0.072c0.086,0.331,0.18,0.669,0.273,0.993
						c0.547-0.115,0.828-0.173,0.828-0.173C1125.068,1539.057,1124.953,1538.755,1124.838,1538.445z"/>
				</g>
			</g>
			<path style="fill:#273359;" d="M1146.318,760.648l-367.652-36.371c-10.145-1.004-18.406,6.199-18.406,16.099v42.961l0.286,0.024
				l400.932,34.056l0.132,0.011v-39C1161.61,769.441,1154.777,761.485,1146.318,760.648z"/>
			<g>
				<g>
					<path style="fill:#FFFFFF;" d="M795.366,756.453c0,2.384-1.452,4.304-3.544,5.031c-0.748,0.265-1.587,0.376-2.469,0.296
						c-0.873-0.079-1.706-0.341-2.463-0.743c-2.099-1.101-3.566-3.3-3.566-5.69c0-3.253,2.709-5.635,6.029-5.326
						C792.677,750.331,795.366,753.209,795.366,756.453z"/>
				</g>
			</g>
			<g>
				<g>
					<path style="fill:#FFFFFF;" d="M813.863,758.152c0,2.374-1.439,4.286-3.514,5.011c-0.741,0.264-1.574,0.375-2.447,0.296
						c-0.874-0.079-1.708-0.341-2.45-0.74c-2.081-1.103-3.528-3.283-3.528-5.664c0-3.239,2.677-5.613,5.978-5.305
						C811.198,752.057,813.863,754.922,813.863,758.152z"/>
				</g>
			</g>
			<g>
				<g>
					<path style="fill:#FFFFFF;" d="M832.203,759.836c0,2.364-1.427,4.269-3.484,4.991c-0.735,0.263-1.56,0.374-2.427,0.296
						c-0.867-0.078-1.693-0.339-2.429-0.736c-2.063-1.098-3.497-3.268-3.497-5.638c0-3.225,2.654-5.59,5.927-5.285
						C829.56,753.769,832.203,756.62,832.203,759.836z"/>
				</g>
			</g>
			<g>
				<g>
					<g>
						<g>
							<path style="fill:#FFFFFF;" d="M1092.423,777.916v15.145l40.638,1.589v-4.702l2.115,0.08v-6.698l-2.115-0.077v-3.902
								L1092.423,777.916z M1131.655,793.349l-37.853-1.468v-12.676l37.853,1.348V793.349z"/>
						</g>
					</g>
				</g>
				<g>
					<g>
						<g>
							<polygon style="fill:#FFFFFF;" points="1096.084,789.928 1100.07,790.08 1100.07,781.405 1096.084,781.261 							"/>
						</g>
					</g>
				</g>
				<g>
					<g>
						<g>
							<polygon style="fill:#FFFFFF;" points="1102.773,790.184 1106.773,790.337 1106.773,781.647 1102.773,781.502 							"/>
						</g>
					</g>
				</g>
				<g>
					<g>
						<g>
							<polygon style="fill:#FFFFFF;" points="1109.67,790.448 1113.683,790.601 1113.683,781.896 1109.67,781.752 							"/>
						</g>
					</g>
				</g>
			</g>
			<g>
				<polygon style="fill:#5780BC;" points="726.479,910.891 716.913,910.361 716.913,834.196 726.479,834.893 				"/>
			</g>
			<g>
				<polygon style="fill:#5780BC;" points="726.479,1002.594 716.913,1002.264 716.913,926.1 726.479,926.596 				"/>
			</g>
			<path style="fill:#5780BC;" d="M741.532,746.904v812.427c0,24.376,20.368,42.031,45.219,39.469l89.179-9.183l2.836-0.295
				l255.698-26.334l0.41-0.043l4.649-0.482c20.749-2.137,37.403-21.634,37.403-43.585V787.352c0-21.944-16.654-41.448-37.403-43.585
				l-352.772-36.338C761.9,704.866,741.532,722.521,741.532,746.904z M760.266,749.092c0-14.718,12.257-25.42,27.284-23.937
				l351.303,34.755c12.602,1.245,22.757,13.07,22.757,26.428v726.89c0,11.969-9.104,22.548-20.382,23.635l-6.772,0.655l-0.417,0.043
				l-7.722,0.741l-1.476,0.144c0.115,0.309,0.23,0.612,0.346,0.892c0,0-0.281,0.058-0.828,0.173
				c-0.094-0.324-0.187-0.662-0.273-0.993l-283.291,27.378l-5.175,0.497l-39.03,3.771l-11.846,1.144
				c-13.487,1.303-24.477-8.327-24.477-21.512V749.092z"/>
			<polygon style="fill:#49263E;" points="1125.533,1540.089 1125.074,1538.422 1123.745,1538.55 1123.944,1540.149 			"/>
			<polygon style="fill:#5780BC;" points="1136.297,1537.339 840.794,1565.895 840.794,1593.235 1141.779,1562.156 			"/>
		</g>
	</g>
	<g>
		<g>
			<g>
				<g>
					<path style="fill:#FEEFDC;" d="M616.345,1605.239c2.541-6.262,3.991-12.797,4.382-19.352l15.265-5.611l-1.883-10.96
						l-1.883-10.96l-16.262-0.196c-2.556-6.048-6.104-11.725-10.589-16.781l6.827-14.764l-9.081-6.419l-9.081-6.419l-11.64,11.362
						c-6.262-2.54-12.797-3.991-19.352-4.382l-5.611-15.265l-10.96,1.883l-10.96,1.883l-0.196,16.263
						c-6.048,2.556-11.725,6.104-16.781,10.588l-14.764-6.827l-6.419,9.081l-6.419,9.081l11.362,11.64
						c-2.54,6.262-3.991,12.797-4.382,19.352l-15.265,5.611l1.882,10.96l1.882,10.96l16.263,0.197
						c2.556,6.048,6.104,11.725,10.588,16.781l-6.827,14.764l9.081,6.419l9.081,6.419l11.64-11.362
						c6.262,2.54,12.797,3.991,19.352,4.382l5.612,15.265l10.96-1.883l10.96-1.883l0.196-16.263
						c6.048-2.556,11.725-6.104,16.781-10.588l14.764,6.827l6.419-9.081l6.419-9.081L616.345,1605.239z M535.242,1616.229
						c-18.816-13.3-23.288-39.334-9.988-58.15c13.3-18.816,39.334-23.287,58.15-9.988c18.816,13.3,23.287,39.334,9.988,58.15
						C580.092,1625.057,554.058,1629.529,535.242,1616.229z"/>
				</g>
			</g>
		</g>
	</g>
	<g>
		<g>
			<g>
				<g>
					<g>
						<g>
							<g>
								<path style="fill:#FECC86;" d="M1104.286,362.829c2.147-75.071-56.964-137.668-132.028-139.815
									c-75.064-2.147-137.657,56.969-139.804,132.04c-1.065,37.236,12.947,71.398,36.496,96.642l-0.005,0.001
									c0,0,39.874,45.168,52.393,93.514c0,0,23.517,8.745,41.427,9.706c17.936,0.064,41.915-7.322,41.915-7.322
									c15.261-47.551,57.652-90.366,57.652-90.366l-0.005-0.001C1087.28,433.371,1103.221,400.065,1104.286,362.829z"/>
							</g>
						</g>
					</g>
				</g>
				<g>
					<g>
						<g>
							<g>
								<path style="fill:#4CB7D8;" d="M960.692,626.273L960.692,626.273c-11.668-0.334-20.855-10.063-20.522-21.732l0,0
									l42.252,1.208l0,0C982.088,617.419,972.359,626.607,960.692,626.273z"/>
							</g>
						</g>
					</g>
				</g>
				<g>
					<g>
						<g>
							<g>
								<path style="fill:#4CB7D8;" d="M961.131,610.93L961.131,610.93c-25.023-0.716-44.729-21.581-44.013-46.605l0.859-30.058
									l90.618,2.592l-0.86,30.057C1007.02,591.94,986.154,611.645,961.131,610.93z"/>
							</g>
						</g>
					</g>
				</g>
				<g style="opacity:0.3;">
					<g>
						<g>
							<path style="fill:#FECC86;" d="M1104.286,362.829c0.796-27.812-6.819-53.91-20.534-75.858
								c-42.555,96.819-107.838,160.89-199.891,183.83c11.07,15.416,25.665,38.572,34.179,63.469l90.555,2.59v0.005
								c17.539-43.074,53.736-79.637,53.736-79.637l-0.005-0.001C1087.28,433.371,1103.221,400.065,1104.286,362.829z"/>
						</g>
					</g>
				</g>
			</g>
			<g>
				<g>
					<g>
						<g>
							<path style="fill:#F99247;" d="M985.511,536.731l-3.86-1.174c0.14-0.461,14.149-46.708,24.306-94.196
								c17.623-82.398,9.354-100.217,2.856-103.505c-6.643-3.361-11.954-2.945-15.788,1.239c-0.279,0.305-0.548,0.626-0.806,0.962
								c9.34,5.875,11.393,14.548,11.84,18.049c1.232,9.66-3.344,19.137-10.2,21.127c-1.66,0.481-4.833,0.658-7.451-3.559
								c-4.159-6.697-5.047-23.168,0.134-33.987c-4.618-2.045-10.279-3.225-16.793-3.411l-3.923-0.112
								c-6.513-0.186-12.233,0.668-16.961,2.445c4.553,11.097,2.725,27.491-1.808,33.939c-2.854,4.059-6.011,3.704-7.643,3.126
								c-6.731-2.378-10.758-12.101-8.976-21.675c0.646-3.469,3.193-12.011,12.852-17.342c-0.238-0.35-0.488-0.686-0.75-1.006
								c-3.587-4.396-8.869-5.117-15.691-2.14c-6.674,2.911-15.948,20.229-3.064,103.5c7.426,47.991,18.768,94.963,18.882,95.432
								l-3.921,0.951c-0.114-0.47-11.492-47.586-18.944-95.744c-10.288-66.48-8.511-101.754,5.435-107.836
								c10.82-4.718,17.081-0.816,20.43,3.286c0.47,0.576,0.908,1.187,1.316,1.831c4.812-1.887,10.999-3.027,18.958-2.8l3.923,0.112
								c7.959,0.228,14.072,1.721,18.768,3.879c0.443-0.619,0.916-1.204,1.419-1.753c3.576-3.906,10.051-7.442,20.583-2.113
								c13.575,6.869,13.334,42.187-0.737,107.97C999.704,489.879,985.652,536.268,985.511,536.731z M945.191,342.283
								c-5.828,3.184-9.606,8.11-10.787,14.455c-1.556,8.356,2.029,15.605,6.353,17.133c0.402,0.142,1.474,0.524,2.998-1.644
								C947.638,366.706,949.046,351.87,945.191,342.283z M990.114,343.568c-4.397,9.351-3.839,24.243-0.279,29.976
								c1.399,2.251,2.489,1.931,2.899,1.813c4.405-1.278,8.398-8.31,7.322-16.741C999.24,352.214,995.75,347.08,990.114,343.568z"
								/>
						</g>
					</g>
				</g>
			</g>
			<g>
				<g>
					<g>
						<g>
							<path style="fill:#21111D;" d="M917.292,535.199c-0.995-3.13-1.45-4.279-2.451-6.795l-0.544-1.375
								c-15.837-40.117-45.808-74.324-46.109-74.664l-0.094-0.107c-24.67-26.509-37.683-61.033-36.648-97.232
								c2.159-75.507,65.34-135.179,140.84-133.02c46.354,1.326,88.545,25.737,112.861,65.299l-1.719,1.057
								c-23.957-38.981-65.528-63.033-111.2-64.339c-74.388-2.128-136.639,56.666-138.766,131.061
								c-1.022,35.723,11.843,69.789,36.224,95.925l1.276,1.368l-0.095,0.017c5.73,6.785,31.13,37.987,45.305,73.896l0.543,1.371
								c1.017,2.562,1.482,3.731,2.499,6.929L917.292,535.199z"/>
						</g>
					</g>
				</g>
			</g>
			<g>
				<g>
					<g>
						<g>
							<path style="fill:#21111D;" d="M875.245,293.473l-1.92-0.617c0.107-0.334,11.113-33.503,45.284-45.115l0.649,1.91
								C886.071,260.928,875.349,293.148,875.245,293.473z"/>
						</g>
					</g>
				</g>
			</g>
			<g>
				<g>
					<g>
						<g>
							<path style="fill:#21111D;" d="M881.131,305.747l-1.92-0.617c0.107-0.334,11.112-33.503,45.284-45.115l0.649,1.91
								C891.956,273.203,881.235,305.423,881.131,305.747z"/>
						</g>
					</g>
				</g>
			</g>
			<g>
				<g>
					<g>
						<g>
							<path style="fill:#21111D;" d="M966.042,612.08l-9.879-0.283c-22.816-0.652-40.847-19.748-40.195-42.565l1.03-36.001
								l91.626,2.621l-0.058,2.017l-89.61-2.563l-0.972,33.985c-0.621,21.706,16.532,39.871,38.236,40.491l9.879,0.282
								c10.392,0.297,20.309-3.436,27.925-10.512l1.372,1.478C987.391,608.468,976.966,612.392,966.042,612.08z"/>
						</g>
					</g>
				</g>
			</g>
			<g>
				<g>
					<g>
						<g>
							<path style="fill:#21111D;" d="M961.25,627.306c-19.639-0.562-21.929-19.695-21.951-19.891l2.006-0.218
								c0.081,0.735,2.21,18.002,20.658,18.103l-0.012,2.018C961.715,627.317,961.48,627.313,961.25,627.306z"/>
						</g>
					</g>
				</g>
			</g>
			<g>
				<g>
					<g>
						<g>
							<path style="fill:#21111D;" d="M1059.396,437.7l-1.155-1.654c18.32-12.797,21.778-34.938,21.811-35.16l1.996,0.293
								C1082.014,401.409,1078.447,424.392,1059.396,437.7z"/>
						</g>
					</g>
				</g>
			</g>
			<g>
				<g>
					<g>
						<g>
							<path style="fill:#21111D;" d="M1055.702,427.902l-1.155-1.654c13.351-9.327,15.88-25.475,15.904-25.637l1.996,0.293
								C1072.345,401.6,1069.786,418.064,1055.702,427.902z"/>
						</g>
					</g>
				</g>
			</g>
			<g>
				<g>
					<g>
						<g>
							<path style="fill:#21111D;" d="M913.299,552.268l0.034-2.017c0.769,0.013,77.203,1.208,101.659-7.12l0.651,1.909
								C990.855,553.482,916.454,552.321,913.299,552.268z"/>
						</g>
					</g>
				</g>
			</g>
			<g>
				<g>
					<g>
						<g>
							<path style="fill:#21111D;" d="M912.819,569.296l0.02-2.018c0.836,0.008,83.799,0.736,99.536-7.124l0.902,1.805
								C997.108,570.036,916.253,569.33,912.819,569.296z"/>
						</g>
					</g>
				</g>
			</g>
			<g>
				<g>
					<g>
						<g>
							<path style="fill:#21111D;" d="M916.481,586.892l0.04-2.017c0.749,0.014,75.176,1.359,95.401-8.371l0.874,1.818
								C992.141,588.26,919.56,586.953,916.481,586.892z"/>
						</g>
					</g>
				</g>
			</g>
		</g>
		<g>
			<g>
				<g>
					<g>
						<g>
							<path style="fill:#F99247;" d="M798.416,332.666c-0.086-0.003-0.172-0.009-0.258-0.018l-47.981-5.469
								c-1.661-0.189-2.854-1.689-2.664-3.349c0.188-1.66,1.689-2.848,3.349-2.664l47.981,5.469
								c1.661,0.189,2.853,1.689,2.664,3.349C801.326,331.557,799.97,332.711,798.416,332.666z"/>
						</g>
					</g>
				</g>
			</g>
		</g>
		<g>
			<g>
				<g>
					<g>
						<g>
							<path style="fill:#F99247;" d="M825.485,256.745c-0.588-0.017-1.178-0.205-1.69-0.578l-39.059-28.401
								c-1.352-0.983-1.65-2.876-0.668-4.227c0.982-1.351,2.873-1.651,4.227-0.668l39.058,28.401
								c1.351,0.983,1.65,2.875,0.667,4.227C827.411,256.339,826.45,256.772,825.485,256.745z"/>
						</g>
					</g>
				</g>
			</g>
		</g>
		<g>
			<g>
				<g>
					<g>
						<g>
							<path style="fill:#F99247;" d="M899.06,203.833c-1.194-0.034-2.305-0.779-2.749-1.967l-16.889-45.246
								c-0.585-1.565,0.211-3.308,1.777-3.893c1.563-0.585,3.308,0.21,3.892,1.777l16.889,45.246
								c0.585,1.565-0.211,3.308-1.776,3.893C899.827,203.783,899.44,203.844,899.06,203.833z"/>
						</g>
					</g>
				</g>
			</g>
		</g>
		<g>
			<g>
				<g>
					<g>
						<g>
							<path style="fill:#F99247;" d="M1136.88,351.07c-1.579-0.045-2.874-1.31-2.934-2.912c-0.063-1.67,1.241-3.075,2.911-3.137
								l48.258-1.804c1.656-0.061,3.073,1.241,3.136,2.911c0.063,1.67-1.241,3.074-2.911,3.137l-48.258,1.804
								C1137.015,351.071,1136.947,351.071,1136.88,351.07z"/>
						</g>
					</g>
				</g>
			</g>
		</g>
		<g>
			<g>
				<g>
					<g>
						<g>
							<path style="fill:#F99247;" d="M1115.663,273.309c-0.985-0.028-1.937-0.536-2.492-1.437
								c-0.877-1.422-0.435-3.287,0.988-4.164l41.106-25.348c1.421-0.877,3.288-0.434,4.163,0.987
								c0.877,1.422,0.435,3.287-0.988,4.164l-41.106,25.348C1116.814,273.181,1116.232,273.326,1115.663,273.309z"/>
						</g>
					</g>
				</g>
			</g>
		</g>
		<g>
			<g>
				<g>
					<g>
						<g>
							<path style="fill:#F99247;" d="M1055.846,208.141c-0.398-0.011-0.799-0.102-1.183-0.28c-1.516-0.702-2.177-2.5-1.475-4.017
								l20.281-43.83c0.703-1.516,2.502-2.174,4.017-1.475c1.516,0.702,2.177,2.5,1.475,4.017l-20.281,43.83
								C1058.156,207.519,1057.019,208.175,1055.846,208.141z"/>
						</g>
					</g>
				</g>
			</g>
		</g>
		<g>
			<g>
				<g>
					<g>
						<g>
							<path style="fill:#F99247;" d="M978.983,182.432c-0.016,0-0.031-0.001-0.047-0.002c-1.67-0.074-2.964-1.487-2.891-3.156
								l2.124-48.249c0.073-1.654,1.461-2.939,3.109-2.892c0.016,0,0.031,0.001,0.047,0.002c1.67,0.074,2.964,1.486,2.891,3.156
								l-2.124,48.249C982.019,181.194,980.631,182.479,978.983,182.432z"/>
						</g>
					</g>
				</g>
			</g>
		</g>
		<g style="opacity:0.5;">
			<g>
				<g>
					<g>
						<path style="fill:#F3FFFE;" d="M1061.474,296.005c-4.969,7.248-21.3,4.688-36.476-5.718
							c-15.176-10.406-23.45-24.718-18.48-31.966c4.969-7.248,21.3-4.689,36.476,5.718
							C1058.169,274.445,1066.443,288.757,1061.474,296.005z"/>
					</g>
				</g>
			</g>
		</g>
	</g>
	<path style="fill:#FDBA68;" d="M1345.624,540.312c-43.945,0-79.57,35.625-79.57,79.57c0,43.945,35.625,79.57,79.57,79.57
		s79.57-35.625,79.57-79.57C1425.194,575.937,1389.57,540.312,1345.624,540.312z M1345.624,693.352
		c-40.577,0-73.47-32.894-73.47-73.47c0-40.577,32.894-73.47,73.47-73.47s73.47,32.894,73.47,73.47
		C1419.095,660.458,1386.201,693.352,1345.624,693.352z"/>
	<g>
		<path style="fill:#FFFFFF;" d="M1354.011,653.056c-2.524,3.423-7.64,3.43-10.173,0.013l-43.683-58.936
			c-4.344-5.861-3.114-14.135,2.747-18.479c5.861-4.344,14.134-3.115,18.479,2.747l27.496,37.097l55.13-74.771
			c4.33-5.873,12.6-7.124,18.472-2.793c5.872,4.33,7.123,12.6,2.793,18.472L1354.011,653.056z"/>
	</g>
	<g>
		<g>
			<g>
				<g>
					<g>
						<g>
							<g>
								<g>
									<g>
										<g>
											<g>
												<g>
													<g>
														<g>
															<g>
																<g>
																	<polygon style="fill:#FE9F73;" points="1657.347,1666.202 1716.675,1667.002 1717.591,1604.88 1658.504,1596.788 
																																			"/>
																</g>
															</g>
														</g>
													</g>
												</g>
											</g>
										</g>
									</g>
								</g>
							</g>
						</g>
					</g>
				</g>
			</g>
		</g>
		<g>
			<g>
				<g>
					<g>
						<g>
							<g>
								<g>
									<g>
										<g>
											<g>
												<g>
													<g>
														<g>
															<g>
																<g>
																	<polygon style="fill:#FE9F73;" points="1845.622,1649.908 1904.999,1638.095 1892.591,1577.182 1831.891,1581.817 
																																			"/>
																</g>
															</g>
														</g>
													</g>
												</g>
											</g>
										</g>
									</g>
								</g>
							</g>
						</g>
					</g>
				</g>
			</g>
		</g>
		<g>
			<g>
				<g>
					<g>
						<g>
							<g>
								<g>
									<g>
										<g>
											<g>
												<g>
													<g>
														<g>
															<path style="fill:#102E5B;" d="M1760.814,1128.381c-2.192,64.153-11.742,315.103-31.926,479.293
																c-1.33,10.823-10.632,18.991-21.69,18.965c-12.242-0.028-29.271-1.462-48.141-7.137
																c-9.121-2.742-15.455-10.918-15.613-20.317l-8.374-499.572c-0.02-1.214,0.063-2.427,0.25-3.626l0.384-2.468
																c2.116-13.6,16.434-21.795,29.464-16.866l81.619,30.881C1755.496,1110.83,1761.128,1119.191,1760.814,1128.381z"/>
														</g>
													</g>
												</g>
											</g>
										</g>
									</g>
								</g>
							</g>
						</g>
					</g>
				</g>
			</g>
		</g>
		<g>
			<g>
				<g>
					<g>
						<g>
							<g>
								<g>
									<g>
										<g>
											<g>
												<g>
													<g>
														<g>
															<path style="fill:#133671;" d="M1835.181,1099.434c0,0,1.139,127.458,19.43,268.023
																c10.156,78.038,39.14,159.083,43.843,227.066c0.624,9.013-5.529,17.078-14.473,19.041
																c-12.663,2.778-32.183,5.4-55.003,2.768c-7.739-0.892-14.094-6.469-15.863-13.95l-63.689-215.095l-38.619-217.484
																l-41.37-118.265L1835.181,1099.434z"/>
														</g>
													</g>
												</g>
											</g>
										</g>
									</g>
								</g>
							</g>
						</g>
					</g>
				</g>
			</g>
		</g>
		<g>
			<g>
				<g>
					<g>
						<g>
							<g>
								<g>
									<g>
										<path d="M1810.81,1595.515c0.086,0,0.175-0.012,0.262-0.037c0.496-0.142,0.781-0.655,0.636-1.144l-61.368-207.257
											l-28.79-162.13c-0.089-0.503-0.573-0.831-1.083-0.75c-0.509,0.088-0.849,0.566-0.76,1.068l28.808,162.231l0.015,0.05
											l61.382,207.307C1810.031,1595.254,1810.404,1595.515,1810.81,1595.515z"/>
									</g>
								</g>
							</g>
						</g>
					</g>
				</g>
			</g>
		</g>
		<g>
			<g>
				<g>
					<g>
						<g>
							<g>
								<g>
									<path d="M1874.9,1470.163c0.07,0,0.141-0.007,0.212-0.024c0.505-0.115,0.82-0.611,0.703-1.11
										c-7.016-29.929-17.174-88.738-22.605-121.13c-0.157-0.935-0.264-1.575-0.37-2.006h-0.002h0.002
										c-0.001-0.004-0.002-0.007-0.002-0.01c-0.002-0.421-0.052-1.018-0.123-1.875l-14.117-168.311
										c-0.042-0.51-0.498-0.898-1.013-0.846c-0.517,0.041-0.901,0.488-0.858,0.998c0.142,1.686,14.119,168.161,14.273,170.191
										c0.001,0.019,0.003,0.04,0.005,0.059l0.105,0.905l0.048-0.004c0.053,0.316,0.12,0.717,0.201,1.2
										c5.434,32.413,15.6,91.266,22.627,121.246C1874.085,1469.874,1874.472,1470.163,1874.9,1470.163z"/>
								</g>
							</g>
						</g>
					</g>
				</g>
			</g>
		</g>
		<g>
			<g>
				<g>
					<g>
						<g>
							<g>
								<g>
									<path d="M1643.161,1583.166c0.005,0,0.01,0,0.015,0c0.518-0.009,0.932-0.429,0.923-0.94l-6.788-404.932
										c-0.009-0.511-0.405-0.935-0.954-0.911c-0.518,0.009-0.932,0.429-0.923,0.94l6.787,404.932
										C1642.231,1582.761,1642.649,1583.166,1643.161,1583.166z"/>
								</g>
							</g>
						</g>
					</g>
				</g>
			</g>
		</g>
		<g>
			<g>
				<g>
					<g>
						<g>
							<path style="fill:#EF3A4C;" d="M1718.035,1674.424l-52.028,0.015l-21.101-22.646l-38.575,22.663l-8.31,0.002
								c-2.863,0.001-5.488,1.911-6.026,4.683c-0.725,3.731,2.157,6.992,5.811,6.991l120.975-0.036c0.889,0,1.609-0.711,1.609-1.587
								l-0.002-7.769C1720.386,1675.462,1719.333,1674.424,1718.035,1674.424z"/>
						</g>
					</g>
				</g>
			</g>
		</g>
		<g>
			<g>
				<g>
					<g>
						<g>
							<path style="fill:#49263E;" d="M1717.575,1674.491l-0.006-21.055c0,0-8.765-11.625-22.105-5.686
								c0,0-20.174,14.118-37.968-2.954l-44.167,19.33c0,0-12.11,3.995-15.388,10.4L1717.575,1674.491z"/>
						</g>
					</g>
				</g>
			</g>
		</g>
		<g>
			<g>
				<g>
					<g>
						<g>
							<g>
								<g>
									<rect x="1717.129" y="1653.436" width="0.886" height="20.95"/>
								</g>
							</g>
						</g>
					</g>
				</g>
			</g>
		</g>
		<g>
			<g>
				<g>
					<g>
						<g>
							<g>
								<g>
									<path d="M1677.38,1653.677c-1.691,0-2.71-0.142-2.743-0.147l0.131-0.863c0.103,0.014,10.531,1.452,20.444-5.277
										l0.502,0.719C1688.612,1652.931,1681.244,1653.676,1677.38,1653.677z"/>
								</g>
							</g>
						</g>
					</g>
				</g>
			</g>
		</g>
		<g>
			<g>
				<g>
					<g>
						<g>
							<g>
								<g>
									<polygon points="1706.822,1670.561 1706.327,1669.837 1711.969,1666.084 1712.464,1666.809 									"/>
								</g>
							</g>
						</g>
					</g>
				</g>
			</g>
		</g>
		<g>
			<g>
				<g>
					<g>
						<g>
							<g>
								<g>
									<polygon points="1702.776,1669.501 1702.281,1668.778 1707.922,1665.025 1708.417,1665.748 									"/>
								</g>
							</g>
						</g>
					</g>
				</g>
			</g>
		</g>
		<g>
			<g>
				<g>
					<g>
						<g>
							<g>
								<g>
									<g>
										<g>
											<g>
												<g>
													<g>
														<g>
															<path d="M1593.689,1685.122c-1.429-1.194-2.249-2.938-2.249-4.783c-0.001-3.459,2.853-6.275,6.362-6.276
																l119.616-0.035c1.881-0.001,3.412,1.508,3.412,3.363l0.002,5.82h-0.886l-0.002-5.82c0-1.374-1.134-2.49-2.526-2.49
																l-119.616,0.036c-3.021,0.001-5.477,2.424-5.477,5.402c0,1.588,0.706,3.09,1.936,4.118L1593.689,1685.122z"/>
														</g>
													</g>
												</g>
											</g>
										</g>
									</g>
								</g>
							</g>
						</g>
					</g>
				</g>
			</g>
		</g>
		<g>
			<g>
				<g>
					<g>
						<g>
							<g>
								<g>
									<path d="M1598.202,1674.686l-0.801-0.373c0.099-0.207,2.521-5.103,11.561-8.906c8.884-3.738,47.96-20.838,48.353-21.01
										l0.36,0.798c-0.395,0.172-39.476,17.274-48.365,21.015C1600.611,1669.871,1598.225,1674.638,1598.202,1674.686z"/>
								</g>
							</g>
						</g>
					</g>
				</g>
			</g>
		</g>
		<g>
			<g>
				<g>
					<g>
						<g>
							<path style="fill:#EF3A4C;" d="M1907.835,1641.814l-49.994,14.202l-26.632-16.008l-30.711,32.298l-7.985,2.268
								c-2.752,0.782-4.738,3.333-4.478,6.144c0.35,3.783,4.035,6.131,7.546,5.134l116.245-33.023
								c0.854-0.242,1.347-1.122,1.101-1.964l-2.182-7.466C1910.386,1642.17,1909.083,1641.46,1907.835,1641.814z"/>
						</g>
					</g>
				</g>
			</g>
		</g>
		<g>
			<g>
				<g>
					<g>
						<g>
							<path style="fill:#49263E;" d="M1907.412,1642.003l-5.913-20.231c0,0-11.685-8.781-22.838,0.564
								c0,0-15.426,19.069-37.316,7.514l-37.021,30.62c0,0-10.517,7.141-11.87,14.191L1907.412,1642.003z"/>
						</g>
					</g>
				</g>
			</g>
		</g>
		<g>
			<g>
				<g>
					<g>
						<g>
							<g>
								<g>
									<path d="M1862.946,1632.963c-1.625,0.461-2.644,0.603-2.677,0.607l-0.116-0.865c0.103-0.015,10.527-1.476,18.166-10.646
										l0.684,0.554C1873.53,1629.183,1866.658,1631.908,1862.946,1632.963z"/>
								</g>
							</g>
						</g>
					</g>
				</g>
			</g>
		</g>
		<g>
			<g>
				<g>
					<g>
						<g>
							<g>
								<g>
									<g>
										<g>
											<g>
												<g>
													<g>
														<g>
															<path d="M1791.342,1686.002c-1.708-0.758-2.985-2.21-3.504-3.984c-0.972-3.324,0.981-6.808,4.353-7.765
																l114.939-32.652c1.808-0.514,3.702,0.519,4.223,2.301l1.634,5.593l-0.851,0.242l-1.635-5.593
																c-0.386-1.32-1.788-2.084-3.126-1.704l-114.939,32.652c-2.903,0.825-4.584,3.823-3.747,6.685
																c0.446,1.526,1.545,2.777,3.016,3.43L1791.342,1686.002z"/>
														</g>
													</g>
												</g>
											</g>
										</g>
									</g>
								</g>
							</g>
						</g>
					</g>
				</g>
			</g>
		</g>
		<g>
			<g>
				<g>
					<g>
						<g>
							<g>
								<g>
									<path d="M1792.752,1674.743l-0.874-0.139c0.037-0.226,0.99-5.591,8.611-11.712c7.489-6.015,40.242-33.103,40.571-33.375
										l0.57,0.669c-0.331,0.273-33.089,27.365-40.582,33.383C1793.716,1669.458,1792.76,1674.69,1792.752,1674.743z"/>
								</g>
							</g>
						</g>
					</g>
				</g>
			</g>
		</g>
		<g>
			<g>
				<path style="fill:#FE9F73;" d="M1470.762,993.542c0.338-2.742-0.035-6.063-1.336-7.107l-18.379-23.761
					c-1.996-1.603-4.915-1.284-6.518,0.713c-1.202,1.497-1.323,3.513-0.467,5.104c1.725,3.202,3.002,6.625,4.203,10.057l2.887,8.252
					c-2.115,0.241-12.594,4.146-19.76,4.446v18.439l-1.026-0.159c0.418,3.908,0.834,8.006,1.049,11.682
					c0.247,4.225-0.929,7.893,2.521,10.072c1.996,1.26,12.46,1.248,16.18,0.968l26.931-0.253
					C1476.356,1024.619,1475.801,1020.435,1470.762,993.542z"/>
			</g>
			<g>
				<g>
					<g>
						<g>
							<g>
								<path style="fill:#FE9F73;" d="M1703.089,932.219c0,0-29.874,64.742-43.244,77.457
									c-13.37,12.715-169.645,22.727-169.645,22.727l-4.131-48.159l125.746-28.77l32.971-62.356L1703.089,932.219z"/>
							</g>
						</g>
					</g>
				</g>
			</g>
			<g>
				<g>
					<g>
						<g>
							<g>
								<path style="fill:#F07162;" d="M1635.431,974.818c-0.316-0.031-0.628-0.143-0.904-0.342l-23.89-17.233
									c-0.833-0.601-1.021-1.763-0.42-2.596c0.6-0.833,1.764-1.021,2.596-0.42l23.89,17.233c0.833,0.601,1.021,1.763,0.42,2.596
									C1636.721,974.612,1636.068,974.881,1635.431,974.818z"/>
							</g>
						</g>
					</g>
				</g>
			</g>
			<g>
				<g>
					<g>
						<path style="fill:#FE9F73;" d="M1423.807,1006.653c0.683,3.06,3.275,4.961,3.971,4.808l23.265-5.128
							c2.615-0.576,4.463-3.052,4.056-5.698c-0.445-2.9-3.232-4.777-6.051-4.155l-23.858,5.258
							C1425.19,1001.738,1423.124,1003.593,1423.807,1006.653z"/>
					</g>
				</g>
			</g>
			<g>
				<g>
					<g>
						<path style="fill:#FE9F73;" d="M1426.015,1016.319c0.624,3.073,3.179,5.023,3.878,4.883l23.359-4.68
							c2.625-0.526,4.52-2.966,4.165-5.619c-0.389-2.908-3.14-4.838-5.971-4.271l-23.955,4.799
							C1427.492,1011.431,1425.391,1013.246,1426.015,1016.319z"/>
					</g>
				</g>
			</g>
			<g>
				<g>
					<g>
						<path style="fill:#FE9F73;" d="M1428.913,1025.11c0.548,2.869,2.907,4.713,3.559,4.591l21.809-4.104
							c2.451-0.461,4.243-2.713,3.941-5.189c-0.331-2.713-2.872-4.541-5.515-4.043l-22.365,4.209
							C1430.342,1020.574,1428.365,1022.241,1428.913,1025.11z"/>
					</g>
				</g>
			</g>
			<g>
				<g>
					<g>
						<g>
							<path style="fill:#F07162;" d="M1427.776,1012.319c-0.436,0-0.827-0.302-0.923-0.745c-0.111-0.511,0.213-1.014,0.724-1.125
								l23.266-5.041c2.186-0.482,3.648-2.515,3.323-4.63c-0.175-1.133-0.787-2.112-1.728-2.757
								c-0.941-0.644-2.071-0.866-3.186-0.619l-21.271,4.688c-0.509,0.106-1.015-0.211-1.126-0.72
								c-0.113-0.51,0.209-1.014,0.72-1.126l21.271-4.688c1.604-0.354,3.304-0.023,4.661,0.907c1.375,0.942,2.274,2.373,2.528,4.029
								c0.475,3.096-1.628,6.068-4.787,6.764l-23.269,5.042C1427.911,1012.313,1427.843,1012.319,1427.776,1012.319z"/>
						</g>
					</g>
				</g>
			</g>
			<g>
				<g>
					<g>
						<path style="fill:#FE9F73;" d="M1423.8,996.539c0.652,2.92,3.125,4.733,3.789,4.587l22.196-4.892
							c2.494-0.55,4.257-2.912,3.87-5.436c-0.424-2.767-3.084-4.558-5.773-3.965l-22.762,5.017
							C1425.12,991.85,1423.149,993.62,1423.8,996.539z"/>
					</g>
				</g>
			</g>
			<g>
				<g>
					<g>
						<g>
							<path style="fill:#F07162;" d="M1427.588,1001.945c-0.416,0-0.789-0.288-0.881-0.711c-0.106-0.487,0.203-0.967,0.69-1.073
								l22.197-4.809c2.086-0.46,3.48-2.4,3.17-4.418c-0.166-1.081-0.751-2.015-1.649-2.63c-0.898-0.615-1.976-0.826-3.04-0.591
								l-20.294,4.473c-0.485,0.101-0.968-0.202-1.075-0.687c-0.107-0.486,0.2-0.967,0.687-1.075l20.293-4.472
								c1.531-0.337,3.152-0.022,4.447,0.865c1.313,0.899,2.17,2.264,2.412,3.844c0.454,2.954-1.553,5.789-4.568,6.453l-22.199,4.81
								C1427.716,1001.939,1427.651,1001.945,1427.588,1001.945z"/>
						</g>
					</g>
				</g>
			</g>
			<g>
				<g>
					<g>
						<g>
							<path style="fill:#F07162;" d="M1430.541,1021.482c-0.447,0-0.844-0.318-0.929-0.773c-0.095-0.513,0.244-1.006,0.757-1.102
								l22.827-4.246c2.21-0.442,3.566-2.225,3.284-4.333c-0.151-1.136-0.746-2.126-1.673-2.788
								c-0.928-0.663-2.051-0.906-3.174-0.681l-23.954,4.799c-0.51,0.105-1.011-0.229-1.112-0.741
								c-0.103-0.511,0.229-1.01,0.741-1.112l23.954-4.799c1.612-0.325,3.304,0.04,4.644,0.996c1.357,0.969,2.227,2.417,2.448,4.076
								c0.414,3.092-1.604,5.8-4.8,6.44l-22.84,4.249C1430.656,1021.476,1430.598,1021.482,1430.541,1021.482z"/>
						</g>
					</g>
				</g>
			</g>
			<g>
				<g>
					<g>
						<g>
							<path style="fill:#F07162;" d="M1432.471,1030.646c-0.446,0-0.843-0.316-0.928-0.771c-0.097-0.512,0.241-1.007,0.754-1.103
								l21.809-4.104c2.019-0.379,3.414-2.2,3.177-4.145c-0.127-1.042-0.661-1.955-1.504-2.572
								c-0.842-0.616-1.871-0.851-2.899-0.657l-22.365,4.208c-0.507,0.097-1.006-0.241-1.103-0.754
								c-0.097-0.512,0.241-1.007,0.754-1.103l22.365-4.209c1.522-0.287,3.113,0.074,4.365,0.989
								c1.268,0.929,2.073,2.303,2.263,3.869c0.358,2.931-1.709,5.668-4.704,6.231l-21.809,4.104
								C1432.587,1030.64,1432.529,1030.646,1432.471,1030.646z"/>
						</g>
					</g>
				</g>
			</g>
			<g>
				<g>
					<g>
						<path style="fill:#FE9F73;" d="M1460.063,980.565c0,0,12.158,5.379,15.519,5.168c3.361-0.21,17.206-3.028,17.206-3.028
							l6.759,49.059c0,0-10.312,1.223-28.167,0.284C1453.524,1031.109,1460.063,980.565,1460.063,980.565z"/>
					</g>
				</g>
			</g>
			<g>
				<path style="fill:#7FC6A6;" d="M1737.203,825.659c0,0-83.683-32.659-102.875-3.115c-19.191,29.544-50.896,110.149-50.417,112.23
					c5.216,22.676,32.672,47.037,49.494,56.004c15.706,8.372,20.624,2.576,30.932-10.063
					c17.636-21.622,25.341-116.689,25.59-115.939C1690.155,865.462,1737.203,825.659,1737.203,825.659z"/>
			</g>
			<g>
				<path style="fill:#7FC6A6;" d="M1836.201,826.899c6.178,8.758,13.512,33.61,22.758,60.313
					c12.253,35.389,25.943,73.221,25.943,73.221s2.103,10.675-48.002,15.359l3.351,170.81c0,0-96.281,32.851-209.442-0.368
					c0,0-5.044-303.362,10.54-326.98C1656.933,795.636,1810.1,789.894,1836.201,826.899z"/>
			</g>
			<g>
				<g>
					<g>
						<g>
							<g>
								<g>
									<g>
										<g>
											<g>
												<g>
													<g>
														<path style="fill:#FE9F73;" d="M1704.682,719.31l-1.289,49.142c0,0-1.073,15.781,12.699,18.118l-3.134,21.01
															c-1.165,7.81,3.323,15.433,10.786,18.013c3.649,1.261,8.019,2.227,13,2.358c15.798,0.415,24.666-11.209,26.138-17.099
															c1.472-5.89-1.735-34.298-1.735-34.298l0.846-13.896l-0.384-53.938L1704.682,719.31z"/>
													</g>
												</g>
											</g>
										</g>
									</g>
								</g>
							</g>
						</g>
					</g>
				</g>
				<g>
					<g>
						<g>
							<g>
								<g>
									<g>
										<g>
											<g>
												<g>
													<g>
														<path style="fill:#F07162;" d="M1748.491,773.99c0,0-1.621,26.418-34.71,28.077l2.311-15.496
															C1716.092,786.57,1737.396,791.435,1748.491,773.99z"/>
													</g>
												</g>
											</g>
										</g>
									</g>
								</g>
							</g>
						</g>
					</g>
				</g>
				<g>
					<g>
						<g>
							<g>
								<g>
									<g>
										<g>
											<g>
												<g>
													<g>
														<path d="M1742.148,746.085c0.164,0.004,0.33-0.052,0.461-0.172c0.268-0.245,0.288-0.661,0.044-0.93
															c-0.088-0.097-8.899-9.595-17.347-3.146c-0.289,0.22-0.345,0.634-0.124,0.923c0.221,0.29,0.634,0.345,0.923,0.124
															c7.486-5.713,15.248,2.629,15.574,2.987C1741.804,746.008,1741.975,746.08,1742.148,746.085z"/>
													</g>
												</g>
											</g>
										</g>
									</g>
								</g>
							</g>
						</g>
					</g>
				</g>
				<g>
					<g>
						<g>
							<g>
								<g>
									<g>
										<g>
											<g>
												<path d="M1765.015,739.773l-14.284,2.585l-2.638,2.593c0,0,1.855-23.784,4.653-28.396
													C1755.545,711.942,1765.015,739.773,1765.015,739.773z"/>
											</g>
										</g>
									</g>
								</g>
							</g>
						</g>
					</g>
				</g>
				<g>
					<g>
						<g>
							<g>
								<g>
									<g>
										<g>
											<g>
												<g>
													<g>
														<path d="M1715.117,741.424c0.184,0.005,0.369-0.067,0.504-0.214c0.245-0.268,0.227-0.684-0.042-0.93
															c-0.259-0.237-6.398-5.772-10.456-2.472c-0.282,0.229-0.325,0.644-0.096,0.926c0.229,0.283,0.644,0.326,0.926,0.096
															c3.18-2.585,8.682,2.372,8.737,2.423C1714.812,741.363,1714.964,741.42,1715.117,741.424z"/>
													</g>
												</g>
											</g>
										</g>
									</g>
								</g>
							</g>
						</g>
					</g>
				</g>
				<g>
					<g>
						<g>
							<g>
								<g>
									<g>
										<g>
											<g>
												<g>
													<g>
														<path d="M1728.767,748.396c-0.029,1.091,0.832,1.998,1.923,2.026c1.09,0.029,1.998-0.832,2.026-1.923
															c0.029-1.091-0.832-1.998-1.923-2.026C1729.703,746.445,1728.795,747.305,1728.767,748.396z"/>
													</g>
												</g>
											</g>
										</g>
									</g>
								</g>
							</g>
						</g>
					</g>
				</g>
				<g>
					<g>
						<g>
							<g>
								<g>
									<g>
										<g>
											<g>
												<g>
													<g>
														<path d="M1707.828,745.871c-0.029,1.091,0.832,1.998,1.923,2.026c1.091,0.029,1.998-0.832,2.027-1.923
															c0.029-1.091-0.832-1.998-1.923-2.026C1708.764,743.919,1707.857,744.78,1707.828,745.871z"/>
													</g>
												</g>
											</g>
										</g>
									</g>
								</g>
							</g>
						</g>
					</g>
				</g>
				<g>
					<g>
						<g>
							<g>
								<g>
									<g>
										<g>
											<g>
												<g>
													<g>
														<path style="fill:#FE9F73;" d="M1745.095,748.138c-0.172,6.544,4.994,11.987,11.538,12.159
															c6.544,0.172,11.988-4.994,12.159-11.538c0.172-6.544-4.994-11.988-11.538-12.159
															C1750.71,736.429,1745.266,741.594,1745.095,748.138z"/>
													</g>
												</g>
											</g>
										</g>
									</g>
								</g>
							</g>
						</g>
					</g>
				</g>
				<g>
					<g>
						<g>
							<g>
								<g>
									<g>
										<g>
											<g>
												<g>
													<g>
														<path style="fill:#F07162;" d="M1758.844,755.08c2.461,0.065,4.154-1.742,4.744-3.577
															c0.698-2.17,0.019-4.314-1.727-5.463c-2.581-1.698-4.987-0.715-6.227,0.055c0.547-1.331,1.374-2.289,2.469-2.854
															c2.368-1.224,5.239-0.212,5.268-0.202c0.171,0.062,0.36-0.027,0.422-0.198c0.062-0.171-0.026-0.359-0.197-0.422
															c-0.128-0.046-3.163-1.12-5.79,0.234c-1.516,0.781-2.572,2.207-3.136,4.237l-0.317,1.139l0.86-0.811
															c0.122-0.115,3.011-2.781,6.287-0.628c1.814,1.193,1.921,3.283,1.462,4.711c-0.477,1.482-1.834,3.18-4.097,3.12
															c-0.023,0-0.044-0.003-0.068-0.002c-0.179-0.005-0.33,0.135-0.337,0.316c-0.007,0.181,0.134,0.335,0.316,0.342
															C1758.797,755.078,1758.821,755.079,1758.844,755.08z"/>
													</g>
												</g>
											</g>
										</g>
									</g>
								</g>
							</g>
						</g>
					</g>
				</g>
				<g>
					<g>
						<g>
							<g>
								<g>
									<g>
										<g>
											<g>
												<g>
													<g>
														<path style="fill:#F07162;" d="M1721.452,761.534c0.138,0.003,0.269-0.081,0.318-0.218
															c0.062-0.171-0.027-0.359-0.198-0.421l-6.541-2.355l2.492-15.473c0.029-0.179-0.093-0.348-0.273-0.377
															c-0.181-0.034-0.349,0.093-0.378,0.272l-2.579,16.012l7.055,2.539
															C1721.382,761.527,1721.417,761.533,1721.452,761.534z"/>
													</g>
												</g>
											</g>
										</g>
									</g>
								</g>
							</g>
						</g>
					</g>
				</g>
				<g>
					<g>
						<g>
							<g>
								<g>
									<g>
										<g>
											<g>
												<g>
													<g>
														<path style="fill:#FBFDFC;" d="M1726.393,768.078c-0.202-0.045-13.024-0.682-13.024-0.682s1.471,5.349,6.237,5.598
															C1724.371,773.244,1726.393,768.078,1726.393,768.078z"/>
													</g>
												</g>
											</g>
										</g>
									</g>
								</g>
							</g>
						</g>
					</g>
				</g>
				<g>
					<g>
						<g>
							<g>
								<g>
									<g>
										<g>
											<g>
												<path d="M1765.015,739.773c0,0,4.606-22.966-2.233-31.751c-6.838-8.785-46.984-24.897-52.011-20.727
													c-5.027,4.171-0.25,9.521-0.25,9.521s-16.141-5.648-20.205,8.69c-4.064,14.338,30.787,21.399,51.849,15.19
													C1742.165,720.697,1755.872,725.088,1765.015,739.773z"/>
											</g>
										</g>
									</g>
								</g>
							</g>
						</g>
					</g>
				</g>
			</g>
			<g>
				<g>
					<g>
						<g>
							<path style="fill:#FE9F73;" d="M1678.884,1037.682c1.959,0.371,86.943,11.362,142.905-7.297
								c19.479-6.495,37.621-21.631,46.554-33.847c13.556-18.538,4.698-54.086-7.885-79.523l-29.862,32.093l0,0
								c-3.34,3.59-7.184,6.672-11.416,9.148c-15.565,9.105-51.87,29.534-88.426,32.498L1678.884,1037.682z"/>
						</g>
					</g>
				</g>
			</g>
			<g>
				<path style="fill:#7FC6A6;" d="M1884.902,960.432c0,0-0.93,1.519-5.643,4.661c-5.539,3.693-16.627,9.194-42.359,10.699
					c0,0-27.349,0.477-59.686-15.359c-32.337-15.837,38.915-75.666,38.915-75.666l33.982,12.693l15.347,12.606L1884.902,960.432z"/>
			</g>
			<g>
				<path d="M1607.546,972.053c0.256,0,0.509-0.112,0.681-0.327c0.301-0.376,0.24-0.925-0.136-1.225
					c-19.315-15.447-22.96-33.79-23.291-35.691c6.613-26.511,44.951-109.409,55.929-117.581
					c11.215-8.347,69.255-15.953,69.84-16.029c0.477-0.061,0.814-0.498,0.752-0.976c-0.062-0.477-0.501-0.809-0.976-0.752
					c-2.407,0.312-59.079,7.742-70.657,16.36c-11.969,8.908-50.717,94.772-56.623,118.733l-0.041,0.164l0.025,0.168
					c0.029,0.202,3.127,20.309,23.953,36.964C1607.163,971.991,1607.355,972.053,1607.546,972.053z"/>
			</g>
			<g>
				<path d="M1694.742,1159.732c-38.443-4.203-63.955-12.587-64.208-12.671l-0.549-0.183l-0.045-0.577
					c-6.028-78.136,4.218-292.247,4.322-294.401c0.024-0.482,0.439-0.87,0.913-0.829c0.481,0.024,0.851,0.432,0.828,0.912
					c-0.104,2.148-10.293,215.091-4.37,293.599c3.895,1.23,28.138,8.573,63.298,12.417c35.316,3.862,89.151,4.873,145.065-12.23
					c0.46-0.141,0.948,0.117,1.088,0.578c0.141,0.46-0.118,0.948-0.578,1.088c-36.547,11.18-72.199,14.66-102.424,14.66
					C1721.831,1162.095,1707.148,1161.088,1694.742,1159.732z M1630.801,1146.234h0.009H1630.801z"/>
			</g>
			<g>
				<path d="M1840.461,975.584c16.466,0,33.881-3.273,45.059-14.538l0.385-0.389l-0.183-0.516l-45.184-127.527
					c-0.207-0.701-5.729-18.244-34.288-24.251c-28.093-5.91-39.379-7.275-39.489-7.289c-0.473-0.054-0.911,0.285-0.968,0.763
					c-0.057,0.477,0.285,0.91,0.763,0.967c0.11,0.013,11.339,1.374,39.335,7.263c27.553,5.797,32.94,22.913,32.991,23.086
					l45.013,127.048c-24.241,23.681-79.707,9.363-86.108,7.606c-0.84-19.522-14.564-106.451-14.704-107.337
					c-0.075-0.475-0.528-0.804-0.997-0.724c-0.475,0.075-0.8,0.521-0.724,0.996c0.142,0.895,14.162,89.7,14.707,107.758l0.019,0.631
					l0.606,0.178C1798.152,969.74,1818.459,975.584,1840.461,975.584z"/>
			</g>
			<g>
				<path d="M1785.957,885.638c0.194,0,0.388-0.064,0.55-0.196c0.373-0.304,0.429-0.853,0.125-1.226l-8.743-10.738
					c-0.304-0.373-0.852-0.43-1.225-0.125c-0.373,0.304-0.429,0.852-0.125,1.226l8.742,10.738
					C1785.453,885.528,1785.704,885.638,1785.957,885.638z"/>
			</g>
			<g>
				<path d="M1798.138,1127.042c0.207,0,0.415-0.073,0.581-0.223l22.281-20.007c0.358-0.322,0.388-0.872,0.066-1.23
					c-0.322-0.357-0.872-0.388-1.23-0.067l-22.281,20.007c-0.358,0.322-0.388,0.872-0.066,1.23
					C1797.661,1126.944,1797.899,1127.042,1798.138,1127.042z"/>
			</g>
			<g>
				<path d="M1804.013,1137.902c0.222,0,0.443-0.084,0.613-0.253l16.405-16.263c0.341-0.339,0.344-0.89,0.005-1.232
					c-0.338-0.342-0.889-0.345-1.232-0.005l-16.405,16.263c-0.342,0.339-0.344,0.89-0.005,1.232
					C1803.564,1137.816,1803.789,1137.902,1804.013,1137.902z"/>
			</g>
			<g>
				<g>
					<g>
						<g>
							<g>
								<g>
									<path style="fill:#C2FBFF;" d="M1685.266,1036.49h-31.579c-3.198,0-5.791-2.981-5.791-6.658v-34.944v-38.033
										c0-3.677,2.593-6.658,5.791-6.658h31.579c3.198,0,5.791,2.981,5.791,6.658v72.977
										C1691.057,1033.509,1688.464,1036.49,1685.266,1036.49z"/>
								</g>
							</g>
						</g>
					</g>
				</g>
				<g>
					<g>
						<g>
							<g>
								<g>
									<path style="fill:#21111D;" d="M1685.266,1037.635c-0.632,0-1.146-0.513-1.146-1.145c0-0.633,0.513-1.146,1.146-1.146
										c2.562,0,4.645-2.473,4.645-5.513v-72.978c0-3.039-2.084-5.512-4.645-5.512h-31.58c-0.632,0-1.145-0.513-1.145-1.145
										c0-0.633,0.513-1.146,1.145-1.146h31.58c3.825,0,6.936,3.501,6.936,7.803v72.978
										C1692.202,1034.135,1689.091,1037.635,1685.266,1037.635z"/>
								</g>
							</g>
						</g>
					</g>
				</g>
			</g>
			<g>
				<g>
					<g>
						<g>
							<g>
								<g>
									<path style="fill:#FE9F73;" d="M1645.315,998.443c-3.748-5.836,1.964-11.041,1.964-11.041
										c-0.229-7.681,2.402-10.469,2.402-10.469s18.796,10.18,29.299,16.802c6.632,0.392,9.565-2.269,9.565-2.269l0.109,0.303
										c1.303-5.544,2.929-12.479,3.094-13.263c0.281-1.329,2.856-3.009,5.289,1.899c2.433,4.908,5.558,14.301,5.558,14.301
										l39.52-5.434l-16.302,52.025c0,0-41.491-2.809-47.784-3.676c-6.293-0.866-26.799-10.507-32.099-17.176
										c-5.299-6.67-2.91-11.136-2.91-11.136C1639.465,1002.562,1645.315,998.443,1645.315,998.443z"/>
								</g>
							</g>
						</g>
					</g>
				</g>
				<g>
					<g>
						<g>
							<g>
								<g>
									<g>
										<path style="fill:#F07162;" d="M1659.408,997.457c0.315,0.067,0.651-0.072,0.82-0.367c0.21-0.366,0.084-0.832-0.282-1.042
											c-5.129-2.943-12.089-9.152-12.158-9.215c-0.314-0.28-0.797-0.253-1.079,0.06c-0.281,0.315-0.254,0.798,0.06,1.079
											c0.29,0.259,7.148,6.378,12.417,9.401C1659.258,997.414,1659.333,997.441,1659.408,997.457z"/>
									</g>
								</g>
							</g>
						</g>
					</g>
				</g>
				<g>
					<g>
						<g>
							<g>
								<g>
									<g>
										<path style="fill:#F07162;" d="M1657.411,1006.922c0.353,0.074,0.72-0.11,0.863-0.456c0.161-0.39-0.025-0.836-0.414-0.998
											c-6.649-2.749-11.978-7.544-12.031-7.592c-0.314-0.284-0.797-0.259-1.079,0.052c-0.283,0.313-0.26,0.796,0.052,1.079
											c0.224,0.204,5.572,5.019,12.475,7.873C1657.321,1006.899,1657.366,1006.913,1657.411,1006.922z"/>
									</g>
								</g>
							</g>
						</g>
					</g>
				</g>
				<g>
					<g>
						<g>
							<g>
								<g>
									<g>
										<path style="fill:#F07162;" d="M1653.472,1017.364c0.344,0.073,0.704-0.101,0.854-0.435c0.172-0.385,0-0.836-0.385-1.009
											c-5.671-2.539-10.337-7.11-10.384-7.157c-0.299-0.297-0.783-0.293-1.08,0.007c-0.296,0.3-0.293,0.784,0.008,1.08
											c0.197,0.195,4.911,4.812,10.833,7.463C1653.368,1017.337,1653.42,1017.353,1653.472,1017.364z"/>
									</g>
								</g>
							</g>
						</g>
					</g>
				</g>
			</g>
			<g style="opacity:0.3;">
				<path style="fill:#FFFFFF;" d="M1651.442,961.463c0,2.894,2.345,5.239,5.239,5.239c2.894,0,5.239-2.346,5.239-5.239
					c0-2.893-2.346-5.239-5.239-5.239C1653.787,956.224,1651.442,958.57,1651.442,961.463z"/>
			</g>
		</g>
	</g>
	<g>
		<g>
			<g>
				<path style="fill:#FFFFFF;" d="M2218.821,796.697h-234.279c-7.483,0-13.55,6.067-13.55,13.55v113.476
					c0,7.483,6.066,13.55,13.55,13.55h19.953l-9.092,24.825l35.907-24.825h187.511c7.483,0,13.55-6.067,13.55-13.55V810.247
					C2232.371,802.763,2226.304,796.697,2218.821,796.697z"/>
			</g>
		</g>
		<g>
			<g>
				<g>
					<g>
						<path style="fill:#B1E8FC;" d="M2207.825,885.226h-217.949c-1.509,0-2.731-1.222-2.731-2.731c0-1.509,1.222-2.731,2.731-2.731
							h217.949c1.509,0,2.731,1.222,2.731,2.731C2210.556,884.003,2209.333,885.226,2207.825,885.226z"/>
					</g>
				</g>
			</g>
			<g>
				<g>
					<g>
						<path style="fill:#B1E8FC;" d="M2131.488,823.185h-141.612c-1.509,0-2.731-1.222-2.731-2.731c0-1.509,1.222-2.731,2.731-2.731
							h141.612c1.509,0,2.731,1.222,2.731,2.731C2134.219,821.963,2132.997,823.185,2131.488,823.185z"/>
					</g>
				</g>
			</g>
			<g>
				<g>
					<g>
						<path style="fill:#B1E8FC;" d="M2051.106,916.246h-61.23c-1.509,0-2.731-1.222-2.731-2.731c0-1.509,1.222-2.731,2.731-2.731
							h61.23c1.509,0,2.731,1.223,2.731,2.731C2053.837,915.023,2052.615,916.246,2051.106,916.246z"/>
					</g>
				</g>
			</g>
			<g>
				<g>
					<g>
						<path style="fill:#B1E8FC;" d="M2207.825,916.246h-137.567c-1.509,0-2.731-1.222-2.731-2.731c0-1.509,1.222-2.731,2.731-2.731
							h137.567c1.509,0,2.731,1.223,2.731,2.731C2210.556,915.023,2209.333,916.246,2207.825,916.246z"/>
					</g>
				</g>
			</g>
			<g>
				<g>
					<g>
						<path style="fill:#B1E8FC;" d="M2209.443,823.185h-56.51c-1.509,0-2.731-1.222-2.731-2.731c0-1.509,1.222-2.731,2.731-2.731
							h56.51c1.509,0,2.731,1.222,2.731,2.731C2212.174,821.963,2210.951,823.185,2209.443,823.185z"/>
					</g>
				</g>
			</g>
			<g>
				<g>
					<g>
						<path style="fill:#B1E8FC;" d="M2078.889,854.206h-89.014c-1.509,0-2.731-1.222-2.731-2.731c0-1.509,1.222-2.731,2.731-2.731
							h89.014c1.509,0,2.731,1.222,2.731,2.731C2081.62,852.983,2080.398,854.206,2078.889,854.206z"/>
					</g>
				</g>
			</g>
			<g>
				<g>
					<g>
						<path style="fill:#B1E8FC;" d="M2209.443,854.206H2098.85c-1.509,0-2.731-1.222-2.731-2.731c0-1.509,1.223-2.731,2.731-2.731
							h110.593c1.509,0,2.731,1.222,2.731,2.731C2212.174,852.983,2210.951,854.206,2209.443,854.206z"/>
					</g>
				</g>
			</g>
		</g>
	</g>
	<g>
		<g>
			<g>
				<g>
					<g>
						<g>
							<path style="fill:#AAC9F8;" d="M2084.046,1180.009v142.136c0,13.12,10.636,23.764,23.764,23.764h343.641
								c13.128,0,23.764-10.645,23.764-23.764v-142.292c0-12.218-9.211-22.273-21.068-23.609H2107.81
								C2094.682,1156.244,2084.046,1166.881,2084.046,1180.009z"/>
						</g>
					</g>
				</g>
			</g>
			<g>
				<g>
					<g>
						<g>
							<g>
								<path style="fill:#AAC9F8;" d="M2211.236,1335.608c-0.487,1.215-58.311,58.317-58.366,56.387
									c-0.055-1.929-0.053-1.939,15.073-67.778L2211.236,1335.608z"/>
							</g>
						</g>
					</g>
				</g>
			</g>
		</g>
		<g>
			<path style="fill:#FFFFFF;" d="M2205.669,1248.536c0,18.672-10.8,34.82-26.491,42.551c-6.306,3.105-13.413,4.846-20.915,4.846
				c-4.653,0-9.156-0.669-13.404-1.926c-19.648-5.778-33.993-23.949-33.993-45.471c0-26.174,21.223-47.397,47.397-47.397
				C2184.446,1201.14,2205.669,1222.362,2205.669,1248.536z"/>
			<path style="fill:#8CD2F9;" d="M2202.433,1248.541c0,17.135-9.76,31.992-24.027,39.309c-0.213,0.115-0.434,0.229-0.656,0.336
				c-5.876,2.893-12.497,4.515-19.487,4.515c-4.187,0-8.244-0.582-12.079-1.68c-0.139-0.033-0.271-0.074-0.41-0.115
				c-18.307-5.384-31.672-22.314-31.672-42.366c0-24.387,19.773-44.161,44.161-44.161
				C2182.659,1204.38,2202.433,1224.153,2202.433,1248.541z"/>
			<g>
				<g>
					<g>
						<g>
							<g>
								<g>
									<g>
										<g>
											<g>
												<g>
													<path style="fill:#FE9F73;" d="M2178.406,1287.85c-0.213,0.115-0.434,0.229-0.656,0.336
														c-5.876,2.893-12.497,4.515-19.487,4.515c-4.187,0-8.244-0.582-12.079-1.68l0.344-2.295l1.491-10.006
														c-8.891-1.508-8.203-11.694-8.203-11.694l0.82-31.156l0.016-0.574l36.753-6.842l0.106,14.341l0.016,2.77l0.016,1.565
														l0.008,1.745l0.09,12.161l0.016,2.245l-0.549,8.973C2177.111,1272.256,2178.119,1281.163,2178.406,1287.85z"/>
												</g>
											</g>
										</g>
									</g>
								</g>
							</g>
						</g>
					</g>
				</g>
				<g>
					<g>
						<g>
							<g>
								<g>
									<g>
										<g>
											<g>
												<g>
													<path style="fill:#F07162;" d="M2168.94,1270.6c0,0-1.046,17.057-22.412,18.128l1.492-10.005
														C2148.021,1278.722,2161.776,1281.864,2168.94,1270.6z"/>
												</g>
											</g>
										</g>
									</g>
								</g>
							</g>
						</g>
					</g>
				</g>
				<g>
					<g>
						<g>
							<g>
								<g>
									<g>
										<g>
											<path d="M2179.609,1248.507l-9.223,1.669l-1.703,1.674c0,0,1.198-15.357,3.004-18.335
												C2173.494,1230.537,2179.609,1248.507,2179.609,1248.507z"/>
										</g>
									</g>
								</g>
							</g>
						</g>
					</g>
				</g>
				<g>
					<g>
						<g>
							<g>
								<g>
									<g>
										<g>
											<g>
												<g>
													<path style="fill:#FE9F73;" d="M2166.747,1253.908c-0.111,4.225,3.224,7.74,7.449,7.851
														c4.225,0.111,7.74-3.224,7.851-7.45c0.111-4.225-3.225-7.74-7.45-7.851S2166.858,1249.683,2166.747,1253.908z"/>
												</g>
											</g>
										</g>
									</g>
								</g>
							</g>
						</g>
					</g>
				</g>
				<g>
					<g>
						<g>
							<g>
								<g>
									<g>
										<g>
											<path d="M2179.609,1248.507c0,0,2.974-14.828-1.442-20.5c-4.415-5.672-30.337-16.076-33.582-13.383
												c-3.246,2.693-0.161,6.147-0.161,6.147s-10.421-3.647-13.046,5.611c-2.624,9.258,19.879,13.817,33.478,9.808
												C2164.855,1236.19,2173.706,1239.025,2179.609,1248.507z"/>
										</g>
									</g>
								</g>
							</g>
						</g>
					</g>
				</g>
			</g>
		</g>
		<g>
			<polygon style="fill:#FFFFFF;" points="2227.747,1185.035 2232.979,1195.637 2244.679,1197.337 2236.213,1205.589 
				2238.211,1217.242 2227.747,1211.74 2217.282,1217.242 2219.281,1205.589 2210.815,1197.337 2222.514,1195.637 			"/>
			<polygon style="fill:#FFFFFF;" points="2278.676,1185.035 2283.908,1195.637 2295.608,1197.337 2287.142,1205.589 
				2289.14,1217.242 2278.676,1211.74 2268.211,1217.242 2270.21,1205.589 2261.744,1197.337 2273.444,1195.637 			"/>
			<polygon style="fill:#FFFFFF;" points="2329.605,1185.035 2334.837,1195.637 2346.537,1197.337 2338.071,1205.589 
				2340.07,1217.242 2329.605,1211.74 2319.14,1217.242 2321.139,1205.589 2312.673,1197.337 2324.373,1195.637 			"/>
			<polygon style="fill:#FFFFFF;" points="2380.534,1185.035 2385.766,1195.637 2397.466,1197.337 2389,1205.589 2390.999,1217.242 
				2380.534,1211.74 2370.07,1217.242 2372.068,1205.589 2363.602,1197.337 2375.302,1195.637 			"/>
			<polygon style="fill:#FFFFFF;" points="2431.463,1185.035 2436.696,1195.637 2448.395,1197.337 2439.929,1205.589 
				2441.928,1217.242 2431.463,1211.74 2420.999,1217.242 2422.997,1205.589 2414.531,1197.337 2426.231,1195.637 			"/>
		</g>
		<rect x="2221.355" y="1233.182" style="fill:#FFFFFF;" width="190.08" height="4.578"/>
		<rect x="2221.355" y="1253.7" style="fill:#FFFFFF;" width="223.87" height="4.578"/>
		<rect x="2221.355" y="1274.218" style="fill:#FFFFFF;" width="223.87" height="4.578"/>
	</g>
	<g>
		<g>
			<g>
				<g>
					<path style="fill:#223749;" d="M1062.908,1166.594l4.861-17.588c0.387,0.106,39.194,10.371,78.462-6.917l7.353,16.7
						C1108.177,1178.782,1064.736,1167.101,1062.908,1166.594z"/>
				</g>
			</g>
			<g>
				<path style="fill:#374169;" d="M1267.029,1078.356c-2.183,2.69-6.132,3.101-8.822,0.919c-2.69-2.183-3.101-6.132-0.918-8.822
					l14.198-17.499c2.182-2.69,6.132-3.101,8.822-0.919c2.69,2.182,3.101,6.132,0.919,8.822L1267.029,1078.356z"/>
			</g>
			<g>
				<path style="fill:#374169;" d="M1263.01,1056.547c-2.54,3.541-7.469,4.352-11.01,1.812c-3.541-2.54-4.352-7.469-1.812-11.01
					l16.524-23.034c2.54-3.54,7.469-4.352,11.01-1.812c3.541,2.54,4.352,7.469,1.812,11.01L1263.01,1056.547z"/>
			</g>
			<g>
				<path style="fill:#374169;" d="M1235.783,1047.022c-3.807-2.119-5.175-6.924-3.056-10.731l13.787-24.769
					c2.119-3.807,6.924-5.176,10.731-3.057c3.807,2.119,5.176,6.924,3.057,10.731l-13.787,24.769
					C1244.395,1047.773,1239.59,1049.141,1235.783,1047.022z"/>
			</g>
			<g>
				<path style="fill:#374169;" d="M1210.405,1049.974c-3.807-2.119-5.176-6.924-3.056-10.731l13.787-24.769
					c2.119-3.807,6.924-5.175,10.731-3.056c3.807,2.12,5.176,6.924,3.057,10.731l-13.787,24.769
					C1219.017,1050.724,1214.213,1052.093,1210.405,1049.974z"/>
			</g>
			<g>
				<path style="fill:#374169;" d="M1196.372,1071.627c-4.927,1.052-9.774-2.089-10.827-7.016l-6.847-32.053
					c-1.052-4.927,2.089-9.774,7.016-10.826c4.927-1.053,9.774,2.089,10.827,7.015l6.847,32.053
					C1204.44,1065.727,1201.299,1070.574,1196.372,1071.627z"/>
			</g>
			<g>
				<path style="fill:#8CD2F9;" d="M1154.113,1171.342c0,0-18.94-33.561-10.716-46.557c8.224-12.995,43.533-62.644,48.625-72.68
					c5.092-10.037,36.421-22.299,59.052-6.484s25.035,29.281-7.555,67.82C1210.927,1151.98,1158.299,1179.619,1154.113,1171.342z"/>
			</g>
			<g>
				<path style="fill:#1D1D1B;" d="M1244.075,1113.913c18.62-22.019,25.956-36.092,24.528-47.057
					c-0.992-7.614-6.109-14.144-17.113-21.833c-1.118-0.781-2.278-1.506-3.473-2.171c-10.109-5.628-22.789-7.057-35.444-3.883
					c-10.079,2.527-18.601,7.674-21.203,12.806c-2.501,4.929-12.694,19.975-21.295,32.531c-2.963,4.326-5.99,8.725-8.918,12.979
					c-7.813,11.353-15.192,22.076-18.378,27.11c-8.336,13.173,9.806,45.725,10.69,47.293c0.52,1.014,1.562,1.618,3.094,1.799
					C1169.29,1174.98,1215.456,1147.755,1244.075,1113.913z M1242.96,1112.971c-30.215,35.729-75.22,60.358-86.226,59.066
					c-0.542-0.063-0.983-0.19-1.319-0.377c-0.3-0.167-0.518-0.383-0.651-0.646l-0.016-0.029
					c-0.187-0.332-18.631-33.329-10.735-45.808c3.172-5.01,10.543-15.722,18.347-27.063c2.929-4.255,5.957-8.655,8.92-12.981
					c9.162-13.376,18.868-27.72,21.392-32.696c2.386-4.703,10.716-9.658,20.258-12.051c13.739-3.445,27.493-1.317,37.725,5.835
					c10.633,7.43,15.568,13.658,16.501,20.824C1268.525,1077.561,1261.289,1091.296,1242.96,1112.971z"/>
			</g>
			<g>
				<path style="fill:#1D1D1B;" d="M1224.996,1084.465c-8.335-10.791-22.65-16.307-42.546-16.394l0.007-1.46
					c13.027,0.056,23.735,2.411,32.019,7.022c4.672,2.6,8.573,5.919,11.683,9.947c13.275,17.197,7.199,41.626,7.136,41.871
					l-1.414-0.363C1231.941,1124.851,1237.837,1101.09,1224.996,1084.465z"/>
			</g>
		</g>
		<g>
			<polygon style="fill:#111E28;" points="945.633,1085.865 897.516,1085.865 897.516,1104.062 945.633,1104.062 947.258,1104.062 
				995.375,1104.062 995.375,1085.865 947.258,1085.865 			"/>
		</g>
		<g>
			<path style="fill:#223749;" d="M868.749,1303.786c0,7.686,3.712,14.05,8.572,15.218h52.281c4.86-1.168,8.572-7.532,8.572-15.218
				v-26.305h-69.425V1303.786z"/>
		</g>
		<g>
			<path style="fill:#374169;" d="M954.717,1303.786c0,7.686,3.713,14.05,8.572,15.218h52.281c4.859-1.168,8.572-7.532,8.572-15.218
				v-26.305h-69.425V1303.786z"/>
		</g>
		<g>
			<path style="fill:#49B3E2;" d="M1038.716,1129.053l-0.752-7.05c-2.686-10.328-12.072-17.941-23.232-17.941h-67.474h-1.625
				h-67.474c-11.16,0-20.546,7.613-23.232,17.941l-0.752,7.05l-12.685,118.272l-0.672,6.284v0.029
				c0.329,12.97,10.948,23.386,23.999,23.386h80.816h1.625h80.816c13.051,0,23.671-10.416,23.999-23.386v-0.029l-0.672-6.284
				L1038.716,1129.053z"/>
		</g>
		<g>
			<g>
				<g>
					<path style="fill:#223749;" d="M883.266,1124.925c-1.288-5.304-6.901-8.306-12.026-6.429
						c-14.922,5.465-43.936,19.087-65.714,47.848l14.547,11.015c18.93-24.998,44.802-37.017,57.511-41.713
						C881.924,1134.042,884.358,1129.423,883.266,1124.925L883.266,1124.925z"/>
				</g>
			</g>
			<g>
				<path style="fill:#374169;" d="M752.783,1286.705c-3.412-0.599-6.663,1.682-7.261,5.094l-3.894,22.195
					c-0.599,3.412,1.682,6.662,5.093,7.261c3.412,0.599,6.663-1.682,7.261-5.093l3.894-22.195
					C758.475,1290.554,756.195,1287.303,752.783,1286.705z"/>
			</g>
			<g>
				<path style="fill:#374169;" d="M768.379,1301.961c-4.329-0.497-8.241,2.609-8.739,6.938l-3.234,28.163
					c-0.497,4.329,2.609,8.241,6.938,8.738c4.329,0.497,8.241-2.609,8.738-6.938l3.234-28.163
					C775.814,1306.37,772.708,1302.458,768.379,1301.961z"/>
			</g>
			<g>
				<path style="fill:#374169;" d="M788.063,1303.979c-4.357,0-7.89,3.532-7.89,7.89v28.348c0,4.357,3.533,7.89,7.89,7.89
					c4.357,0,7.89-3.533,7.89-7.89v-28.348C795.953,1307.512,792.42,1303.979,788.063,1303.979z"/>
			</g>
			<g>
				<path style="fill:#374169;" d="M808.801,1289.057c-4.357,0-7.89,3.533-7.89,7.89v28.348c0,4.357,3.532,7.889,7.89,7.889
					c4.358,0,7.89-3.532,7.89-7.889v-28.348C816.691,1292.59,813.159,1289.057,808.801,1289.057z"/>
			</g>
			<g>
				<path style="fill:#374169;" d="M823.403,1264.177c-3.316-3.793-9.079-4.18-12.872-0.864c-3.793,3.316-4.18,9.079-0.864,12.872
					l21.572,24.677c3.316,3.793,9.079,4.18,12.872,0.864c3.793-3.316,4.18-9.079,0.864-12.872L823.403,1264.177z"/>
			</g>
			<g>
				<path style="fill:#8CD2F9;" d="M798.958,1155.632c-7.684-5.196-40.225,44.55-49.957,94.075
					c-9.732,49.525-1.081,60.121,26.384,62.933c27.465,2.812,48.876-23.14,48.443-34.386c-0.432-11.246,6.272-71.799,7.137-87.154
					C831.83,1175.745,798.958,1155.632,798.958,1155.632z"/>
			</g>
		</g>
		<g>
			<rect x="888.537" y="1319.005" style="fill:#223749;" width="31.791" height="60.225"/>
		</g>
		<g>
			<rect x="1016.745" y="1319.005" style="fill:#223749;" width="31.791" height="60.225"/>
		</g>
		<g>
			<polygon style="fill:#374169;" points="989.816,1085.865 941.699,1085.865 941.699,1104.062 989.816,1104.062 991.441,1104.062 
				1039.558,1104.062 1039.558,1085.865 991.441,1085.865 			"/>
		</g>
		<g>
			<path style="fill:#374169;" d="M912.932,1303.786c0,7.686,3.712,14.05,8.572,15.218h52.28c4.86-1.168,8.572-7.532,8.572-15.218
				v-26.305h-69.425V1303.786z"/>
		</g>
		<g>
			<path style="fill:#8CD2F9;" d="M946.604,1451.57v-47.671c0-22.842-21.122-39.96-43.419-35.001
				c-13.174,2.931-24.779,9.29-26.975,22.335c-5.515,32.764-7.461,101.536-7.461,101.536h111.592
				C980.341,1492.768,981.639,1461.626,946.604,1451.57z"/>
		</g>
		<g>
			<rect x="865.722" y="1492.768" style="fill:#223749;" width="119.377" height="9.732"/>
		</g>
		<g>
			<path style="fill:#374169;" d="M998.9,1303.786c0,7.686,3.712,14.05,8.572,15.218h52.281c4.859-1.168,8.572-7.532,8.572-15.218
				v-26.305H998.9V1303.786z"/>
		</g>
		<g>
			<path style="fill:#8CD2F9;" d="M1082.899,1129.053l-0.752-7.05c-2.686-10.328-12.073-17.941-23.232-17.941h-67.473h-1.625
				h-67.474c-11.16,0-20.546,7.613-23.232,17.941l-0.752,7.05l-12.685,118.272l-0.672,6.284v0.029
				c0.328,12.97,10.948,23.386,23.999,23.386h80.816h1.625h80.816c13.051,0,23.67-10.416,23.999-23.386v-0.029l-0.672-6.284
				L1082.899,1129.053z"/>
		</g>
		<g>
			<path style="fill:#8CD2F9;" d="M1074.812,1451.57v-47.671c0-22.842-21.121-39.96-43.419-35.001
				c-13.174,2.931-24.78,9.29-26.975,22.335c-5.515,32.764-7.461,101.536-7.461,101.536h111.592
				C1108.549,1492.768,1109.847,1461.626,1074.812,1451.57z"/>
		</g>
		<g>
			<rect x="993.93" y="1492.768" style="fill:#223749;" width="119.378" height="9.732"/>
		</g>
		<g>
			<g>
				<rect x="1101" y="911.849" style="fill:#111E28;" width="4.486" height="66.311"/>
			</g>
			<g>
				<path style="fill:#374169;" d="M1125.907,1004.231c-3.545,0-6.419,2.874-6.419,6.419c0,3.545,2.874,6.419,6.419,6.419
					c3.545,0,6.419-2.874,6.419-6.419C1132.326,1007.105,1129.453,1004.231,1125.907,1004.231z"/>
			</g>
			<g>
				<rect x="1117.682" y="996.378" style="fill:#111E28;" width="8.225" height="28.543"/>
			</g>
			<g>
				<path style="fill:#374169;" d="M1105.988,970.452h-20.215v80.769h20.215c5.906,0,10.797-4.319,11.695-9.973v-60.824
					C1116.785,974.771,1111.894,970.452,1105.988,970.452z"/>
			</g>
			<g>
				
					<ellipse transform="matrix(0.2108 -0.9775 0.9775 0.2108 -20.0284 1797.434)" style="fill:#374169;" cx="1103.222" cy="911.122" rx="11.343" ry="11.343"/>
			</g>
		</g>
		<g>
			<path style="fill:#49B3E2;" d="M1038.606,910.124c-10.858-6.61-78.481-6.066-85.63-5.99c-7.149-0.076-74.772-0.62-85.63,5.99
				c-11.467,6.98-25.428,88.747-26.923,108.191c-1.49,19.372,0.984,70.413,111.931,75.724v0.06c0.209-0.009,0.415-0.02,0.623-0.03
				c0.209,0.01,0.414,0.021,0.623,0.03v-0.06c110.947-5.311,113.42-56.352,111.93-75.724
				C1064.034,998.871,1050.074,917.104,1038.606,910.124z"/>
		</g>
		<g>
			<path style="fill:#8CD2F9;" d="M1072.559,910.124c-10.858-6.61-78.481-6.066-85.63-5.99c-7.149-0.076-74.772-0.62-85.631,5.99
				c-11.467,6.98-25.427,88.747-26.923,108.191c-1.49,19.372-16.267,71.55,94.68,76.861h26.051
				c110.947-5.311,105.867-57.489,104.377-76.861C1097.987,998.871,1084.027,917.104,1072.559,910.124z"/>
		</g>
		<g>
			<g>
				<rect x="843.958" y="918.182" style="fill:#111E28;" width="2.349" height="52.415"/>
			</g>
			<g>
				<g>
					<path style="fill:#111E28;" d="M854.175,970.452h-14.476c-5.724,0-10.495,4.057-11.601,9.454
						c-0.07,0.343-0.094,0.695-0.094,1.046v59.769c0,0.351,0.024,0.703,0.094,1.046c1.106,5.397,5.876,9.454,11.601,9.454h14.476
						c3.169,0,5.739-2.569,5.739-5.739v-69.292C859.913,973.021,857.344,970.452,854.175,970.452z"/>
				</g>
				<g>
					<rect x="846.307" y="911.849" style="fill:#111E28;" width="4.486" height="66.311"/>
				</g>
				<g>
					<path style="fill:#374169;" d="M823.393,1004.231c-3.545,0-6.419,2.874-6.419,6.419c0,3.545,2.874,6.419,6.419,6.419
						c3.545,0,6.419-2.874,6.419-6.419C829.812,1007.105,826.938,1004.231,823.393,1004.231z"/>
				</g>
				<g>
					<rect x="823.393" y="996.378" style="fill:#111E28;" width="8.225" height="28.543"/>
				</g>
				<g>
					<path style="fill:#374169;" d="M860.281,970.452h-14.476c-5.724,0-10.495,4.057-11.6,9.454
						c-0.07,0.343-0.094,0.695-0.094,1.046v59.769c0,0.351,0.024,0.703,0.094,1.046c1.106,5.397,5.876,9.454,11.6,9.454h14.476
						c3.169,0,5.739-2.569,5.739-5.739v-69.292C866.02,973.021,863.45,970.452,860.281,970.452z"/>
				</g>
				<g>
					
						<ellipse transform="matrix(0.5085 -0.8611 0.8611 0.5085 -367.4577 1178.4967)" style="fill:#374169;" cx="848.571" cy="911.122" rx="11.343" ry="11.343"/>
				</g>
			</g>
		</g>
		<g>
			<path style="fill:#374169;" d="M1051.24,932.116c-8.099-4.93-58.149-4.574-64.311-4.511c-6.162-0.063-56.212-0.418-64.311,4.511
				c-8.633,5.255-19.143,66.811-20.268,81.449c-1.12,14.565,0.745,52.907,83.956,56.988v0.064c0.211-0.009,0.413-0.022,0.623-0.032
				c0.21,0.01,0.412,0.023,0.623,0.032v-0.064c83.211-4.08,85.076-42.423,83.956-56.988
				C1070.382,998.926,1059.873,937.37,1051.24,932.116z"/>
		</g>
		<g>
			<circle style="fill:#FFFFFF;" cx="939.689" cy="999.096" r="13.266"/>
		</g>
		<g>
			<path style="fill:#FFFFFF;" d="M1034.169,985.829c-7.327,0-13.266,5.94-13.266,13.266c0,7.327,5.939,13.266,13.266,13.266
				c7.327,0,13.266-5.94,13.266-13.266C1047.435,991.769,1041.496,985.829,1034.169,985.829z"/>
		</g>
		<g>
			<path style="fill:#FFFFFF;" d="M964.676,1023.333c12.608,22.659,36.319,21.8,48.155-1.744h-49.126L964.676,1023.333z"/>
		</g>
		<g>
			<g>
				<path style="fill:#49B3E2;" d="M1031.776,1143.221l-0.046-0.359c-1.504-8.29-7.079-14.079-13.555-14.079h-59.813
					c-6.476,0-12.05,5.79-13.555,14.079l-6.225,82.94l-0.01,0.147l0.001,0.188c0.179,10.121,6.305,18.049,13.945,18.049h71.5
					c7.641,0,13.766-7.928,13.945-18.049l0-0.207l-5.859-78.286L1031.776,1143.221z M1024.018,1237.316h-71.5
					c-3.706,0-6.932-5.118-7.073-11.158l5.838-78.004l0.315-4.235c0.922-4.801,3.749-8.267,6.763-8.267h59.813
					c3.015,0,5.841,3.466,6.764,8.267l6.153,82.234C1030.938,1232.219,1027.718,1237.316,1024.018,1237.316z"/>
			</g>
		</g>
		<g>
			<path style="fill:#1D1D1B;" d="M947.334,1451.022V1403.9c0-11.167-4.999-21.581-13.716-28.572
				c-8.652-6.94-19.802-9.541-30.591-7.142c-16.323,3.631-25.587,11.344-27.536,22.926c-5.46,32.439-7.451,100.948-7.471,101.637
				l-0.021,0.751h113.042l0.029-0.699C981.084,1492.484,981.979,1461.282,947.334,1451.022z M979.614,1492.039H869.501
				c0.234-7.578,2.295-70.179,7.429-100.685c1.841-10.939,10.727-18.254,26.413-21.743c10.357-2.304,21.058,0.194,29.362,6.856
				c8.37,6.712,13.169,16.711,13.169,27.433v48.22l0.528,0.152c17.797,5.109,25.874,15.821,29.516,23.908
				C979.186,1483.437,979.578,1489.947,979.614,1492.039z"/>
		</g>
		<g>
			<path style="fill:#1D1D1B;" d="M868.168,1492.328l1.163,0.882c26.078-34.368,76.851-40.854,77.361-40.915l-0.174-1.45
				C946.001,1450.907,894.625,1457.459,868.168,1492.328z"/>
		</g>
		<g>
			<path style="fill:#1D1D1B;" d="M1075.542,1451.022V1403.9c0-11.167-5-21.582-13.716-28.572
				c-8.651-6.94-19.802-9.541-30.591-7.142c-16.323,3.631-25.587,11.344-27.537,22.926c-5.46,32.439-7.451,100.948-7.471,101.637
				l-0.021,0.751h113.043l0.029-0.699C1109.292,1492.484,1110.187,1461.282,1075.542,1451.022z M1107.822,1492.039H997.709
				c0.234-7.578,2.294-70.179,7.429-100.685c1.841-10.939,10.728-18.254,26.414-21.743c10.357-2.304,21.056,0.194,29.361,6.855
				c8.37,6.712,13.169,16.712,13.169,27.434v48.22l0.528,0.152c17.797,5.109,25.874,15.821,29.516,23.908
				C1107.394,1483.437,1107.786,1489.947,1107.822,1492.039z"/>
		</g>
		<g>
			<path style="fill:#1D1D1B;" d="M996.375,1492.328l1.163,0.882c26.078-34.368,76.851-40.854,77.361-40.915l-0.175-1.45
				C1074.209,1450.907,1022.832,1457.459,996.375,1492.328z"/>
		</g>
		<g>
			<path style="fill:#1D1D1B;" d="M1067.595,1301.909c0,14.837-7.26,16.27-7.892,16.366H877.321v1.46h182.473l0.041-0.005
				c0.377-0.043,9.219-1.245,9.219-17.821v-24.428h-1.46V1301.909z"/>
		</g>
		<g>
			
				<rect x="967.143" y="1170.556" transform="matrix(0.0034 -1 1 0.0034 -312.4871 2240.7114)" style="fill:#1D1D1B;" width="1.46" height="213.136"/>
		</g>
		<g>
			
				<rect x="837.814" y="1189.815" transform="matrix(0.1065 -0.9943 0.9943 0.1065 -387.0107 1950.3984)" style="fill:#1D1D1B;" width="107.897" height="1.46"/>
		</g>
		<g>
			
				<rect x="1056.088" y="1245.921" transform="matrix(0.584 -0.8117 0.8117 0.584 -569.4312 1382.1036)" style="fill:#1D1D1B;" width="15.452" height="1.459"/>
		</g>
		<g>
			
				<rect x="1065.111" y="1254.057" transform="matrix(0.5841 -0.8117 0.8117 0.5841 -572.2979 1392.6293)" style="fill:#1D1D1B;" width="15.451" height="1.459"/>
		</g>
		<g>
			<path style="fill:#1D1D1B;" d="M799.352,1155.017c-0.948-0.632-2.151-0.654-3.579-0.067
				c-11.846,4.885-38.943,51.127-47.488,94.616c-5.56,28.295-5.125,44.159,1.456,53.046c4.569,6.171,12.216,9.387,25.57,10.754
				c1.358,0.139,2.722,0.208,4.09,0.208c11.568,0,23.344-4.919,32.857-13.844c7.578-7.111,12.521-15.752,12.3-21.503
				c-0.212-5.518,1.376-23.625,2.785-38.782c0.486-5.236,0.993-10.568,1.483-15.724c1.302-13.699,2.533-26.638,2.868-32.579
				C832.57,1175.577,800.89,1155.96,799.352,1155.017z M830.236,1191.058c-0.334,5.914-1.563,18.839-2.864,32.524
				c-0.49,5.156-0.997,10.49-1.484,15.727c-1.5,16.147-3.004,33.403-2.789,38.973c0.202,5.269-4.667,13.651-11.841,20.383
				c-10.328,9.691-23.372,14.526-35.799,13.249c-12.904-1.321-20.245-4.362-24.546-10.17c-6.311-8.524-6.669-24.044-1.195-51.896
				c9.022-45.913,36.367-89.322,46.613-93.546c0.504-0.208,0.95-0.312,1.336-0.312c0.344,0,0.639,0.083,0.883,0.248l0.029,0.018
				C798.901,1156.453,831.067,1176.314,830.236,1191.058z"/>
		</g>
		<g>
			<path style="fill:#1D1D1B;" d="M779.278,1266.016c-19.306-8.28-25.711-31.909-25.773-32.147l-1.412,0.371
				c0.064,0.244,6.637,24.545,26.6,33.114c4.677,2.007,9.698,3.01,15.045,3.01c9.48,0,19.983-3.151,31.392-9.437l-0.704-1.279
				C807,1269.249,791.811,1271.394,779.278,1266.016z"/>
		</g>
		<g>
			<path style="fill:#1D1D1B;" d="M1100.042,1018.272c-1.437-18.687-15.316-101.399-27.191-108.627
				c-10.964-6.674-78.287-6.154-85.916-6.072c-7.642-0.083-74.964-0.602-85.928,6.072c-11.873,7.227-25.753,89.94-27.191,108.627
				c-0.109,1.417-0.293,3.041-0.488,4.76c-1.325,11.697-3.328,29.374,9.63,44.601c14.118,16.59,43.076,26.045,86.097,28.104
				l26.077,0c45.368-2.172,76.501-12.489,92.534-30.664c14.709-16.674,13.218-35.917,12.418-46.255L1100.042,1018.272z
				 M1086.825,1064.33c-15.824,17.939-46.693,28.129-91.719,30.285l-26.024,0c-42.672-2.042-71.361-11.365-85.269-27.709
				c-12.643-14.857-10.673-32.244-9.37-43.749c0.196-1.73,0.381-3.364,0.492-4.8c1.544-20.072,15.585-101.016,26.655-107.755
				c8.786-5.348,55.566-5.952,76.227-5.952c4.496,0,7.757,0.029,9.119,0.043c7.608-0.081,74.635-0.604,85.333,5.909
				c11.072,6.74,25.112,87.683,26.655,107.755l0.042,0.546C1099.753,1029.077,1101.22,1048.012,1086.825,1064.33z"/>
		</g>
		<g>
			<path style="fill:#1D1D1B;" d="M866.521,975.358c-0.615-4.879-6.131-5.459-6.186-5.464l-0.029-0.003l-16.351,0.145l0.01,1.122
				l16.291-0.144c0.417,0.047,4.641,0.615,5.149,4.451l0.055,67.191l1.122-0.001l-0.055-67.227L866.521,975.358z"/>
		</g>
		<g>
			<path style="fill:#1D1D1B;" d="M1106.911,969.902l-14.958-0.01v1.122h14.79c0.694,0.154,8.344,1.997,10.189,8.541l1.08-0.305
				C1115.9,971.757,1107.277,969.974,1106.911,969.902z"/>
		</g>
		<g>
			
				<rect x="1117.438" y="980.423" transform="matrix(0.9999 -0.0111 0.0111 0.9999 -11.1268 12.4687)" style="fill:#1D1D1B;" width="1.122" height="56.916"/>
		</g>
		<g>
			<path style="fill:#1D1D1B;" d="M1035.931,1061.319c-13.63,5.199-30.364,8.198-48.393,8.673
				c-36.404,0.945-66.833-17.633-67.136-17.821l-0.592,0.953c0.298,0.185,29.461,18.025,64.995,18.025
				c0.915,0,1.839-0.012,2.762-0.036c37.139-0.978,66.941-12.316,77.774-29.59l-0.951-0.596
				C1059.248,1049.127,1049.406,1056.179,1035.931,1061.319z"/>
		</g>
		<g>
			<path style="fill:#1D1D1B;" d="M932.117,929.143l0.045,1.121c0.751-0.03,75.489-2.968,105.015-0.532l0.092-1.119
				C1007.678,926.172,932.869,929.113,932.117,929.143z"/>
		</g>
	</g>
	<rect x="726.479" y="1008.543" style="fill:#5780BC;" width="34.071" height="406.377"/>
</g>
</svg>
